<svg width="38" height="38" viewBox="0 0 38 38" fill="none" xmlns="http://www.w3.org/2000/svg">
<g clip-path="url(#clip0_1207_8747)">
<path d="M19 38C29.4934 38 38 29.4934 38 19C38 8.50659 29.4934 0 19 0C8.50659 0 0 8.50659 0 19C0 29.4934 8.50659 38 19 38Z" fill="#F0F0F0"/>
<path d="M18.9995 0C11.4667 0 4.95802 4.38373 1.88477 10.7392H36.1141C33.0409 4.38373 26.5321 0 18.9995 0Z" fill="#338AF3"/>
<path d="M18.9995 38.0009C26.5321 38.0009 33.0409 33.6171 36.1142 27.2617H1.88477C4.95802 33.6171 11.4667 38.0009 18.9995 38.0009Z" fill="#338AF3"/>
<path d="M24.678 18.9998L22.3576 20.0914L23.5932 22.3386L21.0735 21.8566L20.7542 24.402L18.9992 22.5299L17.244 24.402L16.9248 21.8566L14.4051 22.3385L15.6407 20.0913L13.3203 18.9998L15.6408 17.9083L14.4051 15.6611L16.9247 16.1431L17.2441 13.5977L18.9992 15.4698L20.7543 13.5977L21.0735 16.1431L23.5933 15.6611L22.3576 17.9084L24.678 18.9998Z" fill="#FFDA44"/>
</g>
<defs>
<clipPath id="clip0_1207_8747">
<rect width="38" height="38" fill="white"/>
</clipPath>
</defs>
</svg>
