<svg width="38" height="38" viewBox="0 0 38 38" fill="none" xmlns="http://www.w3.org/2000/svg">
<g clip-path="url(#clip0_1207_8759)">
<path d="M19 38C29.4934 38 38 29.4934 38 19C38 8.50659 29.4934 0 19 0C8.50659 0 0 8.50659 0 19C0 29.4934 8.50659 38 19 38Z" fill="#6DA544"/>
<path d="M19.0003 7.43555L34.696 19.0008L19.0003 30.566L3.30469 19.0008L19.0003 7.43555Z" fill="#FFDA44"/>
<path d="M18.9993 25.6079C22.6491 25.6079 25.6079 22.6491 25.6079 18.9993C25.6079 15.3494 22.6491 12.3906 18.9993 12.3906C15.3494 12.3906 12.3906 15.3494 12.3906 18.9993C12.3906 22.6491 15.3494 25.6079 18.9993 25.6079Z" fill="#F0F0F0"/>
<path d="M15.6967 18.5859C14.5475 18.5859 13.4385 18.7607 12.3945 19.0851C12.4408 22.6951 15.3801 25.6077 19.0011 25.6077C21.2401 25.6077 23.2176 24.4932 24.4131 22.7898C22.3678 20.2294 19.2209 18.5859 15.6967 18.5859Z" fill="#0052B4"/>
<path d="M25.4869 20.2655C25.5664 19.8555 25.6094 19.4325 25.6094 18.9993C25.6094 15.3494 22.6506 12.3906 19.0008 12.3906C16.2774 12.3906 13.9395 14.0384 12.9277 16.3909C13.8221 16.2056 14.748 16.108 15.6965 16.108C19.5348 16.1079 23.0072 17.7035 25.4869 20.2655Z" fill="#0052B4"/>
</g>
<defs>
<clipPath id="clip0_1207_8759">
<rect width="38" height="38" fill="white"/>
</clipPath>
</defs>
</svg>
