<svg width="38" height="38" viewBox="0 0 38 38" fill="none" xmlns="http://www.w3.org/2000/svg">
<g clip-path="url(#clip0_1207_8741)">
<path d="M19 38C29.4934 38 38 29.4934 38 19C38 8.50659 29.4934 0 19 0C8.50659 0 0 8.50659 0 19C0 29.4934 8.50659 38 19 38Z" fill="#F0F0F0"/>
<path d="M3.92742 7.43164C2.43495 9.37343 1.30957 11.6115 0.654297 14.0428H10.5386L3.92742 7.43164Z" fill="#0052B4"/>
<path d="M37.3451 14.0427C36.6898 11.6115 35.5644 9.37343 34.072 7.43164L27.4609 14.0427H37.3451Z" fill="#0052B4"/>
<path d="M0.654297 23.957C1.30965 26.3883 2.43503 28.6264 3.92742 30.5681L10.5384 23.957H0.654297Z" fill="#0052B4"/>
<path d="M30.5681 3.92749C28.6264 2.43503 26.3884 1.30965 23.957 0.654297V10.5385L30.5681 3.92749Z" fill="#0052B4"/>
<path d="M7.43164 34.0719C9.37343 35.5644 11.6115 36.6897 14.0428 37.3451V27.4609L7.43164 34.0719Z" fill="#0052B4"/>
<path d="M14.0427 0.654297C11.6114 1.30965 9.37335 2.43503 7.43164 3.92742L14.0427 10.5385V0.654297Z" fill="#0052B4"/>
<path d="M23.957 37.3451C26.3883 36.6897 28.6264 35.5644 30.5681 34.072L23.957 27.4609V37.3451Z" fill="#0052B4"/>
<path d="M27.4609 23.957L34.072 30.5681C35.5644 28.6264 36.6898 26.3883 37.3451 23.957H27.4609Z" fill="#0052B4"/>
<path d="M37.8392 16.5218H21.4784H21.4783V0.160832C20.667 0.0552188 19.8399 0 19 0C18.1599 0 17.333 0.0552188 16.5218 0.160832V16.5216V16.5217H0.160832C0.0552188 17.333 0 18.1601 0 19C0 19.8401 0.0552188 20.667 0.160832 21.4782H16.5216H16.5217V37.8392C17.333 37.9448 18.1599 38 19 38C19.8399 38 20.667 37.9449 21.4782 37.8392V21.4784V21.4783H37.8392C37.9448 20.667 38 19.8401 38 19C38 18.1601 37.9448 17.333 37.8392 16.5218Z" fill="#D80027"/>
<path d="M23.957 23.9571L32.4355 32.4356C32.8254 32.0458 33.1974 31.6382 33.5523 31.2158L26.2936 23.957H23.957V23.9571Z" fill="#D80027"/>
<path d="M14.043 23.957H14.0428L5.56445 32.4354C5.95425 32.8254 6.36178 33.1973 6.78424 33.5523L14.043 26.2934V23.957Z" fill="#D80027"/>
<path d="M14.0445 14.0431V14.043L5.56606 5.56445C5.17612 5.95425 4.80413 6.36179 4.44922 6.78424L11.708 14.0431H14.0445V14.0431Z" fill="#D80027"/>
<path d="M23.957 14.0426L32.4356 5.56404C32.0458 5.17409 31.6382 4.80211 31.2158 4.44727L23.957 11.7061V14.0426Z" fill="#D80027"/>
</g>
<defs>
<clipPath id="clip0_1207_8741">
<rect width="38" height="38" fill="white"/>
</clipPath>
</defs>
</svg>
