<svg width="35" height="35" viewBox="0 0 35 35" fill="none" xmlns="http://www.w3.org/2000/svg">
<path d="M10.207 16.0417C10.207 20.0623 13.4781 23.3333 17.4987 23.3333C21.5193 23.3333 24.7904 20.0623 24.7904 16.0417C24.7904 15.2367 25.4437 14.5833 26.2487 14.5833C27.0537 14.5833 27.707 15.2367 27.707 16.0417C27.707 21.6708 23.1279 26.25 17.4987 26.25C11.8695 26.25 7.29036 21.6708 7.29036 16.0417C7.29036 10.4125 11.8695 5.83333 17.4987 5.83333C18.3037 5.83333 18.957 6.48667 18.957 7.29167C18.957 8.09667 18.3037 8.75 17.4987 8.75C13.4781 8.75 10.207 12.021 10.207 16.0417ZM17.4987 17.5C16.6937 17.5 16.0404 16.8467 16.0404 16.0417C16.0404 15.6392 16.2037 15.2746 16.4677 15.0106L19.3581 12.1202C17.7364 11.3896 15.6977 11.655 14.4041 12.9485C13.5787 13.774 13.1237 14.8735 13.1237 16.0417C13.1237 17.2098 13.5787 18.3094 14.4041 19.1348C15.2295 19.9602 16.3291 20.4167 17.4987 20.4167C18.6683 20.4167 19.7664 19.9617 20.5918 19.1362C21.4172 18.3108 21.8737 17.2113 21.8737 16.0417C21.8737 15.3796 21.7133 14.7467 21.4362 14.1663L18.5312 17.0713C18.2672 17.3352 17.9027 17.4985 17.5002 17.4985L17.4987 17.5ZM19.3581 12.1202C19.8087 12.3229 20.2331 12.5883 20.5918 12.9471C20.9506 13.3058 21.2233 13.7215 21.4347 14.1648L23.9343 11.6652H27.7056C28.092 11.6652 28.4639 11.5121 28.7366 11.2379L31.6533 8.32125C32.0704 7.90417 32.1958 7.27708 31.9697 6.73167C31.7437 6.18625 31.2114 5.83188 30.6222 5.83188H27.7056V2.91667C27.7056 2.3275 27.3497 1.79521 26.8058 1.56917C26.2589 1.34312 25.6333 1.46708 25.2162 1.88563L22.2995 4.80229C22.0254 5.07646 21.8722 5.44688 21.8722 5.83333V9.60458L19.3581 12.1202ZM28.1372 28.0146C31.4433 25.0746 33.5404 20.8031 33.5404 16.0417C33.5404 15.5006 33.5141 14.9669 33.4616 14.439C33.3814 13.6383 32.6712 13.0521 31.8662 13.1323C31.0656 13.2125 30.4793 13.9256 30.5595 14.7277C30.6018 15.1594 30.6237 15.5983 30.6237 16.0417C30.6237 23.2779 24.7349 29.1667 17.4987 29.1667C10.2624 29.1667 4.3737 23.2779 4.3737 16.0417C4.3737 8.80542 10.2624 2.91667 17.4987 2.91667C17.942 2.91667 18.3795 2.93854 18.8127 2.98083C19.6235 3.0625 20.3293 2.47479 20.4081 1.67417C20.4883 0.872083 19.902 0.1575 19.1014 0.07875C18.5735 0.02625 18.0383 0 17.4987 0C8.65391 0 1.45703 7.19688 1.45703 16.0417C1.45703 20.8031 3.55411 25.0746 6.86016 28.0146L3.86911 32.7644C3.44036 33.4454 3.64453 34.3452 4.32557 34.7754C4.99641 35.2013 5.90495 35.0058 6.33661 34.319L9.21245 29.7515C11.6347 31.2215 14.4639 32.0833 17.4987 32.0833C20.5335 32.0833 23.3627 31.2215 25.7849 29.7515L28.6608 34.319C29.0924 35.0058 30.001 35.2013 30.6718 34.7754C31.3529 34.3467 31.5585 33.4454 31.1283 32.7644L28.1372 28.0146Z" fill="#464646"/>
</svg>
