<svg width="18" height="18" viewBox="0 0 18 18" fill="none" xmlns="http://www.w3.org/2000/svg">
<path fill-rule="evenodd" clip-rule="evenodd" d="M2.07692 9.19355C2.39555 9.19355 2.65385 9.45351 2.65385 9.77419V12.5963C2.65385 13.095 3.02667 13.5037 3.5106 13.5447C4.9753 13.6691 7.2897 13.8387 9 13.8387C10.7103 13.8387 13.0247 13.6691 14.4894 13.5447C14.9733 13.5037 15.3462 13.095 15.3462 12.5963V9.77419C15.3462 9.45351 15.6045 9.19355 15.9231 9.19355C16.2417 9.19355 16.5 9.45351 16.5 9.77419V12.5963C16.5 13.6885 15.6777 14.6093 14.5864 14.7019C13.1205 14.8264 10.7634 15 9 15C7.23657 15 4.87952 14.8264 3.4136 14.7019C2.32229 14.6093 1.5 13.6885 1.5 12.5963V9.77419C1.5 9.45351 1.7583 9.19355 2.07692 9.19355Z" fill="#030D45"/>
<path fill-rule="evenodd" clip-rule="evenodd" d="M8.59205 3.17007C8.81736 2.94331 9.18264 2.94331 9.40795 3.17007L11.7156 5.49265C11.9409 5.7194 11.9409 6.08705 11.7156 6.3138C11.4903 6.54056 11.125 6.54056 10.8997 6.3138L9.57692 4.98245V9.77419C9.57692 10.0949 9.31863 10.3548 9 10.3548C8.68137 10.3548 8.42308 10.0949 8.42308 9.77419V4.98245L7.10025 6.3138C6.87495 6.54056 6.50966 6.54056 6.28436 6.3138C6.05906 6.08705 6.05906 5.7194 6.28436 5.49265L8.59205 3.17007Z" fill="#030D45"/>
</svg>
