<svg width="38" height="38" viewBox="0 0 38 38" fill="none" xmlns="http://www.w3.org/2000/svg">
<g clip-path="url(#clip0_1211_9409)">
<path d="M19 38C29.4934 38 38 29.4934 38 19C38 8.50659 29.4934 0 19 0C8.50659 0 0 8.50659 0 19C0 29.4934 8.50659 38 19 38Z" fill="#F0F0F0"/>
<path d="M19.0008 0C15.1877 0 11.6377 1.12404 8.66209 3.05766L13.5486 6.33286L7.43555 9.49948L13.5486 12.6661L7.43555 15.8327L13.5486 18.999L7.43555 22.1655L13.5486 25.332L7.43555 28.499L13.5486 31.6656L8.66149 34.9418C11.6372 36.8758 15.1875 38 19.0008 38C29.4941 38 38.0008 29.4933 38.0008 19C38.0008 8.50666 29.4941 0 19.0008 0V0Z" fill="#D80027"/>
</g>
<defs>
<clipPath id="clip0_1211_9409">
<rect width="38" height="38" fill="white"/>
</clipPath>
</defs>
</svg>
