<svg width="13" height="15" viewBox="0 0 13 15" fill="none" xmlns="http://www.w3.org/2000/svg">
<path d="M12.2219 2.045L10.7944 0.570625C10.6191 0.390603 10.4096 0.2474 10.1782 0.149413C9.94678 0.0514265 9.69816 0.000629019 9.44687 0L6.5 0C5.77987 0.000909078 5.08207 0.250056 4.52422 0.705449C3.96636 1.16084 3.58256 1.79463 3.4375 2.5H3.375C2.5465 2.50099 1.75222 2.83055 1.16639 3.41639C0.580551 4.00222 0.250992 4.7965 0.25 5.625V11.875C0.250992 12.7035 0.580551 13.4978 1.16639 14.0836C1.75222 14.6694 2.5465 14.999 3.375 15H7.125C7.9535 14.999 8.74778 14.6694 9.33361 14.0836C9.91945 13.4978 10.249 12.7035 10.25 11.875V11.8125C10.9554 11.6674 11.5892 11.2836 12.0446 10.7258C12.4999 10.1679 12.7491 9.47013 12.75 8.75V3.35C12.7509 2.86276 12.5614 2.39445 12.2219 2.045ZM7.125 13.75H3.375C2.87772 13.75 2.40081 13.5525 2.04917 13.2008C1.69754 12.8492 1.5 12.3723 1.5 11.875V5.625C1.5 5.12772 1.69754 4.65081 2.04917 4.29917C2.40081 3.94754 2.87772 3.75 3.375 3.75V8.75C3.37599 9.5785 3.70555 10.3728 4.29139 10.9586C4.87722 11.5444 5.6715 11.874 6.5 11.875H9C9 12.3723 8.80245 12.8492 8.45082 13.2008C8.09919 13.5525 7.62228 13.75 7.125 13.75ZM9.625 10.625H6.5C6.00272 10.625 5.5258 10.4275 5.17417 10.0758C4.82254 9.72419 4.625 9.24728 4.625 8.75V3.125C4.625 2.62772 4.82254 2.15081 5.17417 1.79917C5.5258 1.44754 6.00272 1.25 6.5 1.25H9V2.5C9 2.83152 9.1317 3.14946 9.36612 3.38388C9.60054 3.6183 9.91848 3.75 10.25 3.75H11.5V8.75C11.5 9.24728 11.3025 9.72419 10.9508 10.0758C10.5992 10.4275 10.1223 10.625 9.625 10.625Z" fill="#0165FF"/>
</svg>
