<svg width="25" height="21" viewBox="0 0 25 21" fill="none" xmlns="http://www.w3.org/2000/svg">
<g clip-path="url(#clip0_1207_8791)">
<path d="M12.5 0.5C10.5222 0.5 8.58879 1.08649 6.9443 2.1853C5.29981 3.28412 4.01809 4.8459 3.26121 6.67317C2.50433 8.50043 2.3063 10.5111 2.69215 12.4509C3.078 14.3907 4.03041 16.1725 5.42894 17.5711C6.82746 18.9696 8.60929 19.922 10.5491 20.3079C12.4889 20.6937 14.4996 20.4957 16.3268 19.7388C18.1541 18.9819 19.7159 17.7002 20.8147 16.0557C21.9135 14.4112 22.5 12.4778 22.5 10.5C22.4971 7.84872 21.4426 5.30684 19.5679 3.4321C17.6932 1.55736 15.1513 0.502868 12.5 0.5V0.5ZM20.8333 10.5C20.8343 12.1331 20.3525 13.73 19.4483 15.09L18.455 14.0958C18.3771 14.0177 18.3334 13.912 18.3333 13.8017V13C18.3333 12.337 18.0699 11.7011 17.6011 11.2322C17.1323 10.7634 16.4964 10.5 15.8333 10.5H13.3333C13.1123 10.5 12.9004 10.4122 12.7441 10.2559C12.5878 10.0996 12.5 9.88768 12.5 9.66667V9.25C12.5 9.13949 12.5439 9.03351 12.622 8.95537C12.7002 8.87723 12.8062 8.83333 12.9167 8.83333C13.4692 8.83333 13.9991 8.61384 14.3898 8.22314C14.7805 7.83244 15 7.30253 15 6.75V5.91667C15 5.80616 15.0439 5.70018 15.122 5.62204C15.2002 5.5439 15.3062 5.5 15.4167 5.5H16.5658C17.1178 5.49843 17.6469 5.27924 18.0383 4.89L18.3525 4.57583C19.1385 5.34923 19.7626 6.27137 20.1886 7.28848C20.6145 8.30558 20.8337 9.39731 20.8333 10.5ZM4.2075 11.3025L6.83917 13.9342C7.07076 14.1672 7.34632 14.352 7.64988 14.4778C7.95343 14.6035 8.27894 14.6677 8.6075 14.6667H10.8333C11.0544 14.6667 11.2663 14.7545 11.4226 14.9107C11.5789 15.067 11.6667 15.279 11.6667 15.5V18.7908C9.75017 18.5952 7.96033 17.7426 6.60078 16.3778C5.24122 15.0129 4.39565 13.2198 4.2075 11.3025ZM13.3333 18.7908V15.5C13.3333 14.837 13.0699 14.2011 12.6011 13.7322C12.1323 13.2634 11.4964 13 10.8333 13H8.6075C8.49794 13.0001 8.38943 12.9786 8.28819 12.9367C8.18695 12.8948 8.09497 12.8333 8.0175 12.7558L4.3025 9.04083C4.54098 7.68517 5.11229 6.40991 5.96515 5.32948C6.81802 4.24906 7.92576 3.39726 9.189 2.85051C10.4522 2.30377 11.8315 2.07918 13.2029 2.1969C14.5743 2.31462 15.8951 2.77097 17.0467 3.525L16.86 3.71167C16.7816 3.78902 16.676 3.83268 16.5658 3.83333H15.4167C14.8641 3.83333 14.3342 4.05283 13.9435 4.44353C13.5528 4.83423 13.3333 5.36413 13.3333 5.91667V6.75C13.3333 6.86051 13.2894 6.96649 13.2113 7.04463C13.1332 7.12277 13.0272 7.16667 12.9167 7.16667C12.3641 7.16667 11.8342 7.38616 11.4435 7.77686C11.0528 8.16756 10.8333 8.69747 10.8333 9.25V9.66667C10.8333 10.3297 11.0967 10.9656 11.5656 11.4344C12.0344 11.9033 12.6703 12.1667 13.3333 12.1667H15.8333C16.0544 12.1667 16.2663 12.2545 16.4226 12.4107C16.5789 12.567 16.6667 12.779 16.6667 13V13.8017C16.6682 14.3537 16.8874 14.8828 17.2767 15.2742L18.3908 16.3883C17.0337 17.7502 15.2463 18.5992 13.3333 18.7908Z" fill="#C2C2C2"/>
</g>
<path d="M18.4986 15C18.4986 15.3429 18.9024 16.357 19.4739 16.4999C20.5024 15.8142 20.7128 12.9286 20.9986 12.5L21.1883 10.4999L20.3311 7.49988L19.0454 5.35702L18.4989 5L16.4987 5.35702C16.213 5.49988 15.4987 6 15.4986 5.35706C15.4985 5.0142 14.7844 7.57143 14.4987 8L13.9987 8.5L12.6168 9.21416C12.4739 9.49988 12.3416 9.65714 11.9987 10C11.6559 10.3429 12.2129 10.7143 12.4986 11L17.4986 11.5C17.7843 11.5 16.9986 11.7856 16.9986 12.5C17.6843 12.8429 18.1415 13.5 17.9986 13.5C18.1415 13.6429 17.7596 14.0142 17.7596 14.357C17.7596 14.7856 18.4986 14.5714 18.4986 15Z" fill="#C2C2C2" stroke="#C2C2C2" stroke-width="0.857143"/>
<defs>
<clipPath id="clip0_1207_8791">
<rect width="20" height="20" fill="white" transform="translate(2.5 0.5)"/>
</clipPath>
</defs>
</svg>
