<svg width="35" height="35" viewBox="0 0 35 35" fill="none" xmlns="http://www.w3.org/2000/svg">
<path d="M29.0951 8.07917L24.0055 2.98958C22.0805 1.06458 19.5138 0 16.7867 0H10.2096C6.18464 0 2.91797 3.26667 2.91797 7.29167V27.7083C2.91797 31.7333 6.18464 35 10.2096 35H24.793C28.818 35 32.0846 31.7333 32.0846 27.7083V15.2979C32.0846 12.5708 31.0201 10.0042 29.0951 8.07917ZM27.0388 10.1354C27.5055 10.6021 27.8992 11.1125 28.2201 11.6667H21.8909C21.0888 11.6667 20.4326 11.0104 20.4326 10.2083V3.87917C20.9867 4.2 21.4971 4.59375 21.9638 5.06042L27.0534 10.15L27.0388 10.1354ZM29.168 27.7083C29.168 30.1146 27.1992 32.0833 24.793 32.0833H10.2096C7.80339 32.0833 5.83464 30.1146 5.83464 27.7083V7.29167C5.83464 4.88542 7.80339 2.91667 10.2096 2.91667H16.7867C17.0201 2.91667 17.268 2.91667 17.5013 2.94583V10.2083C17.5013 12.6146 19.4701 14.5833 21.8763 14.5833H29.1388C29.168 14.8167 29.168 15.05 29.168 15.2979V27.7083ZM10.3409 18.9583H8.7513C7.94922 18.9583 7.29297 19.6146 7.29297 20.4167V26.8917C7.29297 27.4021 7.7013 27.7958 8.19714 27.7958C8.69297 27.7958 9.1013 27.3875 9.1013 26.8917V25.1125H10.3263C12.0471 25.1125 13.4471 23.7271 13.4471 22.0354C13.4471 20.3438 12.0471 18.9583 10.3263 18.9583H10.3409ZM10.3409 23.2896H9.13047V20.7812H10.3555C11.0555 20.7812 11.6534 21.35 11.6534 22.0354C11.6534 22.7208 11.0555 23.2896 10.3555 23.2896H10.3409ZM27.7388 19.8771C27.7388 20.3875 27.3305 20.7812 26.8346 20.7812H24.3701V22.4438H26.1784C26.6888 22.4438 27.0826 22.8521 27.0826 23.3479C27.0826 23.8438 26.6742 24.2521 26.1784 24.2521H24.3701V26.8771C24.3701 27.3875 23.9617 27.7812 23.4659 27.7812C22.9701 27.7812 22.5617 27.3729 22.5617 26.8771V19.8625C22.5617 19.3521 22.9701 18.9583 23.4659 18.9583H26.8346C27.3451 18.9583 27.7388 19.3667 27.7388 19.8625V19.8771ZM17.6326 18.9729H16.043C15.2409 18.9729 14.5846 19.6292 14.5846 20.4313V26.9063C14.5846 27.4167 14.993 27.7229 15.4888 27.7229C15.9846 27.7229 17.618 27.7229 17.618 27.7229C19.3388 27.7229 20.7388 26.3375 20.7388 24.6458V22.05C20.7388 20.3583 19.3388 18.9729 17.618 18.9729H17.6326ZM18.9305 24.6458C18.9305 25.3312 18.3326 25.9 17.6326 25.9H16.4221V20.7958H17.6471C18.3471 20.7958 18.9451 21.3646 18.9451 22.05V24.6458H18.9305Z" fill="#464646"/>
</svg>
