<svg width="25" height="24" viewBox="0 0 25 24" fill="none" xmlns="http://www.w3.org/2000/svg">
<path d="M22.3844 15.2984C22.2278 17.0315 21.976 18.4398 21.6697 19.6963C21.4655 20.9529 20.2403 22 18.9131 22H17.2795C16.3606 22 15.6459 21.267 15.6459 20.3246V16.0314C15.6459 14.9843 14.8291 14.1466 13.8081 14.1466H11.4598C10.4388 14.1466 9.62205 14.9843 9.62205 16.0314V20.3246C9.62205 21.267 8.90736 22 7.98847 22H6.04859C4.7213 22 3.59821 21.0576 3.29191 19.6963C2.98562 18.3351 2.72005 17.0327 2.57722 15.2984C2.39596 13.0974 2.57722 11.0052 2.67932 9.64398C2.67932 8.80628 3.18982 7.96859 3.90451 7.44503L11.0514 2.52356C11.4598 2.20942 11.9703 2 12.4808 2C12.9913 2 13.6039 2.20942 14.0123 2.52356L21.1592 7.44503C21.8739 7.96859 22.3844 8.80628 22.3844 9.64398C22.4865 11.0052 22.5831 13.0993 22.3844 15.2984Z" fill="#0165FF"/>
</svg>
