<svg width="18" height="18" viewBox="0 0 18 18" fill="none" xmlns="http://www.w3.org/2000/svg">
<path fill-rule="evenodd" clip-rule="evenodd" d="M7.02198 2.65385C5.70196 2.65385 4.63187 3.72393 4.63187 5.04396C4.63187 6.36398 5.70196 7.43407 7.02198 7.43407C8.342 7.43407 9.41209 6.36398 9.41209 5.04396C9.41209 3.72393 8.342 2.65385 7.02198 2.65385ZM3.47802 5.04396C3.47802 3.08668 5.0647 1.5 7.02198 1.5C8.97925 1.5 10.5659 3.08668 10.5659 5.04396C10.5659 7.00123 8.97925 8.58791 7.02198 8.58791C5.0647 8.58791 3.47802 7.00123 3.47802 5.04396Z" fill="#F7F7F7"/>
<path fill-rule="evenodd" clip-rule="evenodd" d="M5.55865 11.5549C3.95437 11.5549 2.65385 12.8555 2.65385 14.4597C2.65385 14.5396 2.66762 14.5947 2.68144 14.6259C2.69259 14.6511 2.70079 14.6559 2.70443 14.658C3.10014 14.8906 4.2385 15.3462 7.02198 15.3462C9.80545 15.3462 10.9435 14.8908 11.3392 14.6582C11.3428 14.6561 11.3514 14.6511 11.3625 14.6259C11.3763 14.5947 11.3901 14.5396 11.3901 14.4597C11.3901 12.8555 10.0896 11.5549 8.48531 11.5549H5.55865ZM1.5 14.4597C1.5 12.2182 3.31712 10.4011 5.55865 10.4011H8.48531C10.7268 10.4011 12.544 12.2182 12.544 14.4597C12.544 14.8458 12.4135 15.3652 11.9238 15.6529C11.2785 16.0322 9.90666 16.5 7.02198 16.5C4.13729 16.5 2.76541 16.0322 2.12012 15.6529C1.63048 15.3652 1.5 14.8458 1.5 14.4597Z" fill="#F7F7F7"/>
<path fill-rule="evenodd" clip-rule="evenodd" d="M11.6573 2.91541C11.7405 2.60782 12.0572 2.42586 12.3648 2.50899C13.6374 2.85294 14.522 4.10962 14.522 5.53846C14.522 7.04822 13.4872 8.40946 12.0358 8.58379C11.7195 8.62179 11.4322 8.39615 11.3942 8.07979C11.3562 7.76344 11.5819 7.47618 11.8982 7.43818C12.6722 7.34522 13.3681 6.56805 13.3681 5.53846C13.3681 4.5616 12.7692 3.81353 12.0638 3.62287C11.7562 3.53974 11.5742 3.223 11.6573 2.91541Z" fill="#F7F7F7"/>
<path fill-rule="evenodd" clip-rule="evenodd" d="M13.3788 10.8676C13.4398 10.5549 13.7428 10.3508 14.0555 10.4118C15.4753 10.6887 16.5 11.9325 16.5 13.3791V13.7801C16.5 14.1352 16.3935 14.6409 15.9303 14.937C15.6185 15.1363 15.1348 15.3487 14.3891 15.4995C14.0768 15.5627 13.7724 15.3608 13.7093 15.0485C13.6461 14.7362 13.848 14.4318 14.1603 14.3686C14.7965 14.2399 15.1403 14.0725 15.3088 13.9648L15.3102 13.9634C15.3115 13.9619 15.316 13.9558 15.3216 13.9422C15.3338 13.9123 15.3462 13.8588 15.3462 13.7801V13.3791C15.3462 12.4846 14.7125 11.7155 13.8346 11.5443C13.5219 11.4833 13.3178 11.1803 13.3788 10.8676Z" fill="#F7F7F7"/>
</svg>
