<svg width="18" height="18" viewBox="0 0 18 18" fill="none" xmlns="http://www.w3.org/2000/svg">
<path fill-rule="evenodd" clip-rule="evenodd" d="M4.875 2.67857C4.33708 2.67857 3.58225 2.80692 3.0679 2.91053C3.00737 2.92272 2.95864 2.97031 2.948 3.03845C2.8451 3.69745 2.69118 4.82403 2.69118 5.625C2.69118 6.42597 2.8451 7.55255 2.948 8.21156C2.95864 8.27969 3.00737 8.32728 3.0679 8.33947C3.58225 8.44308 4.33708 8.57143 4.875 8.57143C5.41292 8.57143 6.16775 8.44308 6.6821 8.33947C6.74263 8.32728 6.79136 8.27969 6.802 8.21156C6.9049 7.55255 7.05882 6.42597 7.05882 5.625C7.05882 4.82403 6.9049 3.69745 6.802 3.03845C6.79136 2.97031 6.74263 2.92272 6.6821 2.91053C6.16775 2.80692 5.41292 2.67857 4.875 2.67857ZM2.83027 1.75565C3.34659 1.65164 4.20555 1.5 4.875 1.5C5.54445 1.5 6.40341 1.65164 6.91973 1.75565C7.47653 1.86781 7.89366 2.31061 7.97921 2.8585C8.08191 3.5162 8.25 4.7236 8.25 5.625C8.25 6.5264 8.08191 7.7338 7.97921 8.3915C7.89366 8.93939 7.47653 9.38219 6.91973 9.49435C6.40341 9.59836 5.54445 9.75 4.875 9.75C4.20555 9.75 3.34659 9.59836 2.83026 9.49435C2.27347 9.38219 1.85634 8.93939 1.77079 8.3915C1.66809 7.7338 1.5 6.5264 1.5 5.625C1.5 4.7236 1.66809 3.5162 1.77079 2.8585C1.85634 2.31061 2.27347 1.86781 2.83027 1.75565Z" fill="#F7F7F7"/>
<path fill-rule="evenodd" clip-rule="evenodd" d="M13.125 15.3214C12.5871 15.3214 11.8323 15.1931 11.3179 15.0895C11.2574 15.0773 11.2086 15.0297 11.198 14.9616C11.0951 14.3026 10.9412 13.176 10.9412 12.375C10.9412 11.574 11.0951 10.4474 11.198 9.78844C11.2086 9.72031 11.2574 9.67272 11.3179 9.66053C11.8323 9.55692 12.5871 9.42857 13.125 9.42857C13.6629 9.42857 14.4177 9.55692 14.9321 9.66053C14.9926 9.67272 15.0414 9.72031 15.052 9.78844C15.1549 10.4474 15.3088 11.574 15.3088 12.375C15.3088 13.176 15.1549 14.3026 15.052 14.9616C15.0414 15.0297 14.9926 15.0773 14.9321 15.0895C14.4177 15.1931 13.6629 15.3214 13.125 15.3214ZM11.0803 16.2444C11.5966 16.3484 12.4555 16.5 13.125 16.5C13.7945 16.5 14.6534 16.3484 15.1697 16.2444C15.7265 16.1322 16.1437 15.6894 16.2292 15.1415C16.3319 14.4838 16.5 13.2764 16.5 12.375C16.5 11.4736 16.3319 10.2662 16.2292 9.6085C16.1437 9.06061 15.7265 8.61781 15.1697 8.50565C14.6534 8.40164 13.7945 8.25 13.125 8.25C12.4555 8.25 11.5966 8.40164 11.0803 8.50565C10.5235 8.61781 10.1063 9.06061 10.0208 9.6085C9.91809 10.2662 9.75 11.4736 9.75 12.375C9.75 13.2764 9.91809 14.4838 10.0208 15.1415C10.1063 15.6894 10.5235 16.1322 11.0803 16.2444Z" fill="#F7F7F7"/>
<path fill-rule="evenodd" clip-rule="evenodd" d="M4.875 12.4615C4.30416 12.4615 3.49681 12.5974 2.98737 12.6971C2.93056 12.7082 2.89681 12.7456 2.88581 12.7852C2.78816 13.1369 2.69118 13.5746 2.69118 13.875C2.69118 14.1754 2.78816 14.6132 2.88581 14.9648C2.89681 15.0044 2.93056 15.0418 2.98737 15.0529C3.49681 15.1526 4.30416 15.2885 4.875 15.2885C5.44584 15.2885 6.25319 15.1526 6.76263 15.0529C6.81944 15.0418 6.85319 15.0044 6.86419 14.9648C6.96184 14.6132 7.05882 14.1754 7.05882 13.875C7.05882 13.5746 6.96184 13.1369 6.86419 12.7852C6.85319 12.7456 6.81944 12.7082 6.76263 12.6971C6.25319 12.5974 5.44584 12.4615 4.875 12.4615ZM2.76225 11.5074C3.27139 11.4077 4.17874 11.25 4.875 11.25C5.57126 11.25 6.47861 11.4077 6.98775 11.5074C7.46968 11.6017 7.87242 11.9585 8.01053 12.4559C8.11004 12.8143 8.25 13.3928 8.25 13.875C8.25 14.3572 8.11004 14.9357 8.01053 15.2941C7.87242 15.7915 7.46968 16.1483 6.98775 16.2426C6.47861 16.3423 5.57126 16.5 4.875 16.5C4.17874 16.5 3.27139 16.3423 2.76225 16.2426C2.28032 16.1483 1.87758 15.7915 1.73947 15.2941C1.63996 14.9357 1.5 14.3572 1.5 13.875C1.5 13.3928 1.63996 12.8143 1.73947 12.4559C1.87758 11.9585 2.28032 11.6017 2.76225 11.5074Z" fill="#F7F7F7"/>
<path fill-rule="evenodd" clip-rule="evenodd" d="M13.125 5.53846C12.5542 5.53846 11.7468 5.40265 11.2374 5.30293C11.1806 5.29181 11.1468 5.25444 11.1358 5.21484C11.0382 4.86315 10.9412 4.42542 10.9412 4.125C10.9412 3.82458 11.0382 3.38685 11.1358 3.03516C11.1468 2.99556 11.1806 2.95819 11.2374 2.94707C11.7468 2.84735 12.5542 2.71154 13.125 2.71154C13.6958 2.71154 14.5032 2.84735 15.0126 2.94707C15.0694 2.95819 15.1032 2.99556 15.1142 3.03516C15.2118 3.38685 15.3088 3.82458 15.3088 4.125C15.3088 4.42542 15.2118 4.86315 15.1142 5.21484C15.1032 5.25444 15.0694 5.29181 15.0126 5.30293C14.5032 5.40265 13.6958 5.53846 13.125 5.53846ZM11.0123 6.49264C11.5214 6.5923 12.4287 6.75 13.125 6.75C13.8213 6.75 14.7286 6.5923 15.2377 6.49264C15.7197 6.3983 16.1224 6.0415 16.2605 5.5441C16.36 5.1857 16.5 4.60724 16.5 4.125C16.5 3.64276 16.36 3.0643 16.2605 2.7059C16.1224 2.2085 15.7197 1.8517 15.2377 1.75736C14.7286 1.6577 13.8213 1.5 13.125 1.5C12.4287 1.5 11.5214 1.6577 11.0123 1.75736C10.5303 1.8517 10.1276 2.2085 9.98947 2.7059C9.88996 3.0643 9.75 3.64276 9.75 4.125C9.75 4.60724 9.88996 5.1857 9.98947 5.5441C10.1276 6.0415 10.5303 6.3983 11.0123 6.49264Z" fill="#F7F7F7"/>
</svg>
