<svg width="18" height="18" viewBox="0 0 18 18" fill="none" xmlns="http://www.w3.org/2000/svg">
<path fill-rule="evenodd" clip-rule="evenodd" d="M9 5.33721C6.9771 5.33721 5.33721 6.9771 5.33721 9C5.33721 11.0229 6.9771 12.6628 9 12.6628C11.0229 12.6628 12.6628 11.0229 12.6628 9C12.6628 6.9771 11.0229 5.33721 9 5.33721ZM4.2907 9C4.2907 6.39912 6.39912 4.2907 9 4.2907C11.6009 4.2907 13.7093 6.39912 13.7093 9C13.7093 11.6009 11.6009 13.7093 9 13.7093C6.39912 13.7093 4.2907 11.6009 4.2907 9Z" fill="#F7F7F7"/>
<path fill-rule="evenodd" clip-rule="evenodd" d="M9 1.5C9.28899 1.5 9.52326 1.73427 9.52326 2.02326V2.72093C9.52326 3.00992 9.28899 3.24419 9 3.24419C8.71101 3.24419 8.47674 3.00992 8.47674 2.72093V2.02326C8.47674 1.73427 8.71101 1.5 9 1.5Z" fill="#F7F7F7"/>
<path fill-rule="evenodd" clip-rule="evenodd" d="M9 14.7558C9.28899 14.7558 9.52326 14.9901 9.52326 15.2791V15.9767C9.52326 16.2657 9.28899 16.5 9 16.5C8.71101 16.5 8.47674 16.2657 8.47674 15.9767V15.2791C8.47674 14.9901 8.71101 14.7558 9 14.7558Z" fill="#F7F7F7"/>
<path fill-rule="evenodd" clip-rule="evenodd" d="M16.5 9C16.5 9.28899 16.2657 9.52326 15.9767 9.52326H15.2791C14.9901 9.52326 14.7558 9.28899 14.7558 9C14.7558 8.71101 14.9901 8.47674 15.2791 8.47674H15.9767C16.2657 8.47674 16.5 8.71101 16.5 9Z" fill="#F7F7F7"/>
<path fill-rule="evenodd" clip-rule="evenodd" d="M3.24419 9C3.24419 9.28899 3.00992 9.52326 2.72093 9.52326H2.02326C1.73427 9.52326 1.5 9.28899 1.5 9C1.5 8.71101 1.73427 8.47674 2.02326 8.47674H2.72093C3.00992 8.47674 3.24419 8.71101 3.24419 9Z" fill="#F7F7F7"/>
<path fill-rule="evenodd" clip-rule="evenodd" d="M14.3033 3.6967C14.5076 3.90104 14.5076 4.23235 14.3033 4.43669L13.81 4.93002C13.6056 5.13437 13.2743 5.13437 13.07 4.93002C12.8656 4.72568 12.8656 4.39437 13.07 4.19003L13.5633 3.6967C13.7676 3.49236 14.099 3.49236 14.3033 3.6967Z" fill="#F7F7F7"/>
<path fill-rule="evenodd" clip-rule="evenodd" d="M4.93002 13.07C5.13437 13.2743 5.13437 13.6056 4.93002 13.81L4.43669 14.3033C4.23235 14.5076 3.90104 14.5076 3.6967 14.3033C3.49235 14.099 3.49235 13.7676 3.6967 13.5633L4.19003 13.07C4.39437 12.8656 4.72568 12.8656 4.93002 13.07Z" fill="#F7F7F7"/>
<path fill-rule="evenodd" clip-rule="evenodd" d="M14.3033 14.3033C14.099 14.5076 13.7676 14.5076 13.5633 14.3033L13.07 13.81C12.8656 13.6056 12.8656 13.2743 13.07 13.07C13.2743 12.8656 13.6056 12.8656 13.81 13.07L14.3033 13.5633C14.5076 13.7676 14.5076 14.099 14.3033 14.3033Z" fill="#F7F7F7"/>
<path fill-rule="evenodd" clip-rule="evenodd" d="M4.93003 4.93002C4.72568 5.13437 4.39437 5.13437 4.19003 4.93002L3.6967 4.43669C3.49236 4.23235 3.49236 3.90104 3.6967 3.6967C3.90104 3.49235 4.23235 3.49235 4.43669 3.6967L4.93003 4.19003C5.13437 4.39437 5.13437 4.72568 4.93003 4.93002Z" fill="#F7F7F7"/>
</svg>
