<svg width="18" height="18" viewBox="0 0 18 18" fill="none" xmlns="http://www.w3.org/2000/svg">
<path fill-rule="evenodd" clip-rule="evenodd" d="M4.875 2.67857C4.33708 2.67857 3.58225 2.80692 3.0679 2.91053C3.00737 2.92272 2.95864 2.97031 2.948 3.03845C2.8451 3.69745 2.69118 4.82403 2.69118 5.625C2.69118 6.42597 2.8451 7.55255 2.948 8.21156C2.95864 8.27969 3.00737 8.32728 3.0679 8.33947C3.58225 8.44308 4.33708 8.57143 4.875 8.57143C5.41292 8.57143 6.16775 8.44308 6.6821 8.33947C6.74263 8.32728 6.79136 8.27969 6.802 8.21156C6.9049 7.55255 7.05882 6.42597 7.05882 5.625C7.05882 4.82403 6.9049 3.69745 6.802 3.03845C6.79136 2.97031 6.74263 2.92272 6.6821 2.91053C6.16775 2.80692 5.41292 2.67857 4.875 2.67857ZM2.83027 1.75565C3.34659 1.65164 4.20555 1.5 4.875 1.5C5.54445 1.5 6.40341 1.65164 6.91973 1.75565C7.47653 1.86781 7.89366 2.31061 7.97921 2.8585C8.08191 3.5162 8.25 4.7236 8.25 5.625C8.25 6.5264 8.08191 7.7338 7.97921 8.3915C7.89366 8.93939 7.47653 9.38219 6.91973 9.49435C6.40341 9.59836 5.54445 9.75 4.875 9.75C4.20555 9.75 3.34659 9.59836 2.83026 9.49435C2.27347 9.38219 1.85634 8.93939 1.77079 8.3915C1.66809 7.7338 1.5 6.5264 1.5 5.625C1.5 4.7236 1.66809 3.5162 1.77079 2.8585C1.85634 2.31061 2.27347 1.86781 2.83027 1.75565Z" fill="#F7F7F7"/>
<path fill-rule="evenodd" clip-rule="evenodd" d="M13.125 15.3214C12.5871 15.3214 11.8323 15.1931 11.3179 15.0895C11.2574 15.0773 11.2086 15.0297 11.198 14.9616C11.0951 14.3026 10.9412 13.176 10.9412 12.375C10.9412 11.574 11.0951 11.159 11.198 10.5C11.2086 10.4319 11.2574 10.3843 11.3179 10.3721C11.8323 10.2685 12.5871 10.1401 13.125 10.1401C13.6629 10.1401 14.4177 10.2685 14.9321 10.3721C14.9926 10.3843 15.0414 10.4319 15.052 10.5C15.1549 11.159 15.3088 11.574 15.3088 12.375C15.3088 13.176 15.1549 14.3026 15.052 14.9616C15.0414 15.0297 14.9926 15.0773 14.9321 15.0895C14.4177 15.1931 13.6629 15.3214 13.125 15.3214ZM11.0803 16.2444C11.5966 16.3484 12.4555 16.5 13.125 16.5C13.7945 16.5 14.6534 16.3484 15.1697 16.2444C15.7265 16.1322 16.1437 15.6894 16.2292 15.1415C16.3319 14.4838 16.5 13.2764 16.5 12.375C16.5 11.4736 16.3319 10.9778 16.2292 10.3201C16.1437 9.77217 15.7265 9.32936 15.1697 9.2172C14.6534 9.1132 13.7945 8.96156 13.125 8.96156C12.4555 8.96156 11.5966 9.1132 11.0803 9.2172C10.5235 9.32936 10.1063 9.77217 10.0208 10.3201C9.91809 10.9778 9.75 11.4736 9.75 12.375C9.75 13.2764 9.91809 14.4838 10.0208 15.1415C10.1063 15.6894 10.5235 16.1322 11.0803 16.2444Z" fill="#F7F7F7"/>
<path fill-rule="evenodd" clip-rule="evenodd" d="M4.875 12.4615C4.30416 12.4615 3.49681 12.5974 2.98737 12.6971C2.93056 12.7082 2.89681 12.7456 2.88581 12.7852C2.78816 13.1368 2.69118 13.5746 2.69118 13.875C2.69118 14.1754 2.78816 14.6132 2.88581 14.9648C2.89681 15.0044 2.93056 15.0418 2.98737 15.0529C3.49681 15.1526 4.30416 15.2885 4.875 15.2885C5.44584 15.2885 6.25319 15.1526 6.76263 15.0529C6.81944 15.0418 6.85319 15.0044 6.86419 14.9648C6.96184 14.6132 7.05882 14.1754 7.05882 13.875C7.05882 13.5746 6.96184 13.1368 6.86419 12.7852C6.85319 12.7456 6.81944 12.7082 6.76263 12.6971C6.2532 12.5974 5.44584 12.4615 4.875 12.4615ZM2.76225 11.5074C3.27139 11.4077 4.17874 11.25 4.875 11.25C5.57126 11.25 6.47861 11.4077 6.98775 11.5074C7.46968 11.6017 7.87242 11.9585 8.01053 12.4559C8.11004 12.8143 8.25 13.3928 8.25 13.875C8.25 14.3572 8.11004 14.9357 8.01053 15.2941C7.87242 15.7915 7.46968 16.1483 6.98775 16.2426C6.47861 16.3423 5.57126 16.5 4.875 16.5C4.17874 16.5 3.27139 16.3423 2.76225 16.2426C2.28032 16.1483 1.87758 15.7915 1.73947 15.2941C1.63996 14.9357 1.5 14.3572 1.5 13.875C1.5 13.3928 1.63996 12.8143 1.73947 12.4559C1.87758 11.9585 2.28032 11.6017 2.76225 11.5074Z" fill="#F7F7F7"/>
<path d="M10.6 5.6H12.4V7.4C12.4 7.55913 12.4632 7.71174 12.5757 7.82426C12.6883 7.93679 12.8409 8 13 8C13.1591 8 13.3117 7.93679 13.4243 7.82426C13.5368 7.71174 13.6 7.55913 13.6 7.4V5.6H15.4C15.5591 5.6 15.7117 5.53679 15.8243 5.42426C15.9368 5.31174 16 5.15913 16 5C16 4.84087 15.9368 4.68826 15.8243 4.57574C15.7117 4.46321 15.5591 4.4 15.4 4.4H13.6V2.6C13.6 2.44087 13.5368 2.28826 13.4243 2.17574C13.3117 2.06321 13.1591 2 13 2C12.8409 2 12.6883 2.06321 12.5757 2.17574C12.4632 2.28826 12.4 2.44087 12.4 2.6V4.4H10.6C10.4409 4.4 10.2883 4.46321 10.1757 4.57574C10.0632 4.68826 10 4.84087 10 5C10 5.15913 10.0632 5.31174 10.1757 5.42426C10.2883 5.53679 10.4409 5.6 10.6 5.6Z" fill="#F7F7F7"/>
</svg>
