<svg width="18" height="18" viewBox="0 0 18 18" fill="none" xmlns="http://www.w3.org/2000/svg">
<path fill-rule="evenodd" clip-rule="evenodd" d="M3.80769 4.44486C3.80769 3.29181 4.75478 2.35708 5.92308 2.35708H9C9.31863 2.35708 9.57692 2.61201 9.57692 2.92648C9.57692 3.24094 9.31863 3.49587 9 3.49587H5.92308C5.39203 3.49587 4.96154 3.92075 4.96154 4.44486V5.20405C4.96154 5.51852 4.70324 5.77344 4.38462 5.77344C4.06599 5.77344 3.80769 5.51852 3.80769 5.20405V4.44486ZM4.38462 12.2266C4.70324 12.2266 4.96154 12.4815 4.96154 12.796V13.5551C4.96154 14.0793 5.39203 14.5041 5.92308 14.5041H9C9.31863 14.5041 9.57692 14.7591 9.57692 15.0735C9.57692 15.388 9.31863 15.6429 9 15.6429H5.92308C4.75478 15.6429 3.80769 14.7082 3.80769 13.5551V12.796C3.80769 12.4815 4.06599 12.2266 4.38462 12.2266Z" fill="#F7F7F7"/>
<path fill-rule="evenodd" clip-rule="evenodd" d="M9.57692 3.58963C9.57692 2.92868 10.2444 2.47016 10.8724 2.69972L14.7186 4.10562C15.0958 4.2435 15.3462 4.59854 15.3462 4.99553V13.0045C15.3462 13.4014 15.0958 13.7565 14.7186 13.8944L10.8724 15.3003C10.2444 15.5298 9.57692 15.0713 9.57692 14.4104V3.58963ZM11.2732 1.63182C9.89156 1.1268 8.42308 2.13554 8.42308 3.58963V14.4104C8.42308 15.8645 9.89156 16.8732 11.2732 16.3682L15.1193 14.9623C15.9492 14.6589 16.5 13.8778 16.5 13.0045V4.99553C16.5 4.12215 15.9492 3.34106 15.1193 3.03772L11.2732 1.63182Z" fill="#F7F7F7"/>
<path fill-rule="evenodd" clip-rule="evenodd" d="M4.02333 7.079C3.79803 6.85664 3.43274 6.85664 3.20744 7.079L1.66898 8.59738C1.44367 8.81974 1.44367 9.18026 1.66898 9.40262L3.20744 10.921C3.43274 11.1434 3.79803 11.1434 4.02333 10.921C4.24863 10.6986 4.24863 10.3381 4.02333 10.1158L3.46974 9.5694H6.69231C7.01093 9.5694 7.26923 9.31447 7.26923 9C7.26923 8.68553 7.01093 8.43061 6.69231 8.43061H3.46974L4.02333 7.88424C4.24863 7.66188 4.24863 7.30136 4.02333 7.079Z" fill="#F7F7F7"/>
</svg>
