<svg width="18" height="18" viewBox="0 0 18 18" fill="none" xmlns="http://www.w3.org/2000/svg">
<path fill-rule="evenodd" clip-rule="evenodd" d="M6.09677 12.0769C6.09677 12.3955 6.35674 12.6538 6.67742 12.6538H11.3226C11.6433 12.6538 11.9032 12.3955 11.9032 12.0769C11.9032 11.7583 11.6433 11.5 11.3226 11.5H6.67742C6.35674 11.5 6.09677 11.7583 6.09677 12.0769Z" fill="#F7F7F7"/>
<path fill-rule="evenodd" clip-rule="evenodd" d="M6.09677 9C6.09677 9.31863 6.35674 9.57692 6.67742 9.57692H9C9.32068 9.57692 9.58064 9.31863 9.58064 9C9.58064 8.68137 9.32068 8.42308 9 8.42308H6.67742C6.35674 8.42308 6.09677 8.68137 6.09677 9Z" fill="#F7F7F7"/>
<path fill-rule="evenodd" clip-rule="evenodd" d="M6.72624 2.15016C6.96708 1.75833 7.38949 1.5 7.86595 1.5H10.1341C10.6105 1.5 11.0329 1.75833 11.2738 2.15016L11.6985 2.84119C12.1181 2.87382 12.5161 2.90893 12.8634 2.94161C13.8748 3.03676 14.6628 3.83818 14.7422 4.84139C14.8489 6.18964 15 8.38298 15 10.0083C15 11.5422 14.8656 13.2838 14.7606 14.412C14.6687 15.4 13.8859 16.1754 12.8942 16.2691C11.8166 16.3709 10.2148 16.5 9 16.5C7.78516 16.5 6.18343 16.3709 5.10584 16.2691C4.11411 16.1754 3.33129 15.4 3.23937 14.412C3.1344 13.2838 3 11.5422 3 10.0083C3 8.38298 3.15111 6.18964 3.25779 4.84139C3.33717 3.83818 4.12518 3.03676 5.13659 2.94161C5.48395 2.90893 5.88188 2.87382 6.3015 2.84119L6.72624 2.15016ZM6.01831 4.02167C5.74372 4.0446 5.48316 4.06801 5.24606 4.09032C4.79956 4.13232 4.45091 4.48446 4.41551 4.93183C4.30889 6.27939 4.16129 8.4327 4.16129 10.0083C4.16129 11.4881 4.2917 13.1876 4.39573 14.3058C4.43605 14.7392 4.77728 15.079 5.21576 15.1205C6.2908 15.222 7.84489 15.3462 9 15.3462C10.1551 15.3462 11.7092 15.222 12.7842 15.1205C13.2227 15.079 13.5639 14.7392 13.6043 14.3058C13.7083 13.1876 13.8387 11.4881 13.8387 10.0083C13.8387 8.4327 13.6911 6.27939 13.5845 4.93183C13.5491 4.48446 13.2004 4.13232 12.7539 4.09032C12.5168 4.06801 12.2563 4.0446 11.9817 4.02167C11.9514 4.18523 11.8941 4.3413 11.8141 4.48207C11.5953 4.86671 11.1819 5.17299 10.6502 5.17299H7.34982C6.81813 5.17299 6.40468 4.86671 6.18593 4.48207C6.10588 4.3413 6.04857 4.18523 6.01831 4.02167ZM7.86595 2.65385C7.8247 2.65385 7.76366 2.67616 7.71732 2.75154L7.20119 3.59126C7.19359 3.60362 7.18714 3.61592 7.18168 3.6281C7.14005 3.72099 7.14869 3.82952 7.19697 3.91442C7.24305 3.99544 7.30047 4.01915 7.34982 4.01915H10.6502C10.6995 4.01915 10.757 3.99544 10.803 3.91442C10.8513 3.82952 10.8599 3.72099 10.8183 3.6281C10.8129 3.61592 10.8064 3.60362 10.7988 3.59126L10.2827 2.75154C10.2363 2.67616 10.1753 2.65385 10.1341 2.65385H7.86595Z" fill="#F7F7F7"/>
</svg>
