<svg width="18" height="18" viewBox="0 0 18 18" fill="none" xmlns="http://www.w3.org/2000/svg">
<path d="M17 9C17 7.916 16.524 6.89333 15.7167 6.25067C15.81 5.16933 15.4233 4.11 14.6567 3.34267C13.89 2.57667 12.834 2.18867 11.8053 2.306C11.1067 1.476 10.084 1 9 1C7.916 1 6.89333 1.476 6.25067 2.28333C5.168 2.19 4.10933 2.576 3.34267 3.34333C2.576 4.11 2.19 5.17 2.306 6.19467C1.476 6.89333 1 7.916 1 9C1 10.084 1.476 11.1067 2.28333 11.7493C2.19 12.8307 2.57667 13.8907 3.34333 14.6573C4.11 15.4247 5.17267 15.812 6.19467 15.694C6.89333 16.524 7.916 17 9 17C10.084 17 11.1067 16.524 11.7493 15.7167C12.828 15.8093 13.8893 15.424 14.6567 14.6567C15.4227 13.89 15.8093 12.83 15.6933 11.8053C16.524 11.1067 17 10.084 17 9ZM14.8353 10.7853C14.516 11.054 14.3527 11.4473 14.3887 11.8633C14.4473 12.552 14.202 13.2267 13.714 13.714C13.226 14.202 12.5527 14.4467 11.8633 14.3887C11.446 14.3547 11.0547 14.516 10.786 14.8353C10.3407 15.364 9.69 15.6673 9 15.6673C8.31 15.6673 7.65933 15.364 7.214 14.8353C6.96933 14.5453 6.62267 14.3847 6.24933 14.3847C6.212 14.3847 6.174 14.386 6.13667 14.3893C5.452 14.4487 4.774 14.2027 4.286 13.7147C3.79867 13.2267 3.55267 12.552 3.612 11.864C3.64733 11.448 3.48533 11.056 3.16533 10.786C2.63667 10.3413 2.33333 9.69 2.33333 9.00067C2.33333 8.31133 2.63667 7.66 3.16533 7.21467C3.48467 6.94533 3.64733 6.55267 3.61133 6.13667C3.55267 5.44867 3.798 4.774 4.286 4.286C4.774 3.79867 5.44867 3.55467 6.13667 3.612C6.55067 3.64467 6.94467 3.48467 7.21467 3.16533C7.65933 2.63667 8.31067 2.33333 9 2.33333C9.68933 2.33333 10.3407 2.63667 10.786 3.16533C11.0547 3.484 11.4467 3.64933 11.864 3.61133C12.5473 3.55533 13.226 3.798 13.714 4.286C14.2013 4.77333 14.4473 5.44867 14.3887 6.13667C14.3527 6.55267 14.5153 6.94533 14.8353 7.21467C15.3633 7.65933 15.6667 8.31067 15.6667 9C15.6667 9.68933 15.3633 10.3407 14.8353 10.7853ZM11.6667 10.3333C11.6667 11.436 10.7693 12.3333 9.66667 12.3333V13C9.66667 13.368 9.368 13.6667 9 13.6667C8.632 13.6667 8.33333 13.368 8.33333 13V12.3333H8.15467C7.44267 12.3333 6.77933 11.9507 6.42267 11.334C6.23867 11.0153 6.34733 10.608 6.666 10.4233C6.984 10.2387 7.392 10.348 7.57667 10.6667C7.69533 10.872 7.91733 11 8.15467 11H9.66667C10.0347 11 10.3333 10.7007 10.3333 10.3333C10.3333 10.0813 10.1527 9.868 9.904 9.82667L7.876 9.48867C6.982 9.34 6.33267 8.57333 6.33267 7.66667C6.33267 6.564 7.23 5.66667 8.33267 5.66667V5C8.33267 4.632 8.63133 4.33333 8.99933 4.33333C9.36733 4.33333 9.666 4.632 9.666 5V5.66667H9.84467C10.556 5.66667 11.22 6.05 11.5767 6.66667C11.7613 6.98533 11.652 7.39267 11.334 7.57733C11.014 7.76133 10.606 7.65267 10.4233 7.334C10.304 7.128 10.0827 7.00067 9.84533 7.00067H8.33333C7.966 7.00067 7.66667 7.3 7.66667 7.66733C7.66667 7.91933 7.84733 8.13267 8.096 8.174L10.1233 8.512C11.018 8.66067 11.6667 9.42667 11.6667 10.3333Z" fill="#F7F7F7"/>
</svg>
