<svg width="18" height="18" viewBox="0 0 18 18" fill="none" xmlns="http://www.w3.org/2000/svg">
<path d="M11.6667 10.3333C11.6667 10.7013 11.368 11 11 11H10.3333C9.96533 11 9.66667 10.7013 9.66667 10.3333C9.66667 9.96533 9.96533 9.66667 10.3333 9.66667H11C11.368 9.66667 11.6667 9.96533 11.6667 10.3333ZM13.6667 9.66667H13C12.632 9.66667 12.3333 9.96533 12.3333 10.3333C12.3333 10.7013 12.632 11 13 11H13.6667C14.0347 11 14.3333 10.7013 14.3333 10.3333C14.3333 9.96533 14.0347 9.66667 13.6667 9.66667ZM11 12.3333H10.3333C9.96533 12.3333 9.66667 12.632 9.66667 13C9.66667 13.368 9.96533 13.6667 10.3333 13.6667H11C11.368 13.6667 11.6667 13.368 11.6667 13C11.6667 12.632 11.368 12.3333 11 12.3333ZM13.6667 12.3333H13C12.632 12.3333 12.3333 12.632 12.3333 13C12.3333 13.368 12.632 13.6667 13 13.6667H13.6667C14.0347 13.6667 14.3333 13.368 14.3333 13C14.3333 12.632 14.0347 12.3333 13.6667 12.3333ZM11 4.33333H10.3333C9.96533 4.33333 9.66667 4.632 9.66667 5C9.66667 5.368 9.96533 5.66667 10.3333 5.66667H11C11.368 5.66667 11.6667 5.368 11.6667 5C11.6667 4.632 11.368 4.33333 11 4.33333ZM13.6667 4.33333H13C12.632 4.33333 12.3333 4.632 12.3333 5C12.3333 5.368 12.632 5.66667 13 5.66667H13.6667C14.0347 5.66667 14.3333 5.368 14.3333 5C14.3333 4.632 14.0347 4.33333 13.6667 4.33333ZM11 7H10.3333C9.96533 7 9.66667 7.29867 9.66667 7.66667C9.66667 8.03467 9.96533 8.33333 10.3333 8.33333H11C11.368 8.33333 11.6667 8.03467 11.6667 7.66667C11.6667 7.29867 11.368 7 11 7ZM13.6667 7H13C12.632 7 12.3333 7.29867 12.3333 7.66667C12.3333 8.03467 12.632 8.33333 13 8.33333H13.6667C14.0347 8.33333 14.3333 8.03467 14.3333 7.66667C14.3333 7.29867 14.0347 7 13.6667 7ZM17 4.33333V13.6667C17 15.5047 15.5047 17 13.6667 17H4.33333C2.49533 17 1 15.5047 1 13.6667V7.172C1 6.27133 1.372 5.396 2.02067 4.77133L3.27933 3.55933C4.05733 2.80933 5.276 2.81 6.054 3.55933L7 4.47067V4.33333C7 2.49533 8.49533 1 10.3333 1H13.6667C15.5047 1 17 2.49533 17 4.33333ZM7 7.172C7 6.63133 6.77667 6.10667 6.38733 5.73133L5.12867 4.51933C4.99933 4.394 4.83267 4.332 4.66667 4.332C4.50067 4.332 4.334 4.394 4.20467 4.51933L2.946 5.73133C2.55667 6.106 2.33333 6.63133 2.33333 7.172V13.6667C2.33333 14.7693 3.23067 15.6667 4.33333 15.6667H7V7.172ZM15.6667 4.33333C15.6667 3.23067 14.7693 2.33333 13.6667 2.33333H10.3333C9.23067 2.33333 8.33333 3.23067 8.33333 4.33333V15.6667H13.6667C14.7693 15.6667 15.6667 14.7693 15.6667 13.6667V4.33333Z" fill="#F7F7F7"/>
</svg>
