<svg width="18" height="18" viewBox="0 0 18 18" fill="none" xmlns="http://www.w3.org/2000/svg">
<path fill-rule="evenodd" clip-rule="evenodd" d="M2.14763 3.30995C2.28942 2.26458 3.18399 1.5 4.22958 1.5H13.7704C14.816 1.5 15.7106 2.26458 15.8524 3.30995C16.0457 4.73501 16.3365 7.05546 16.4335 8.78051C16.5289 10.4791 16.5025 12.7752 16.4714 14.2065C16.4481 15.2786 15.6193 16.1529 14.5504 16.2341C13.0967 16.3445 10.7438 16.5 9 16.5C7.25623 16.5 4.90325 16.3445 3.44963 16.2341C2.38066 16.1529 1.55194 15.2786 1.52862 14.2065C1.49749 12.7752 1.47105 10.4791 1.56653 8.78051C1.66349 7.05546 1.95433 4.73501 2.14763 3.30995ZM4.22958 2.65385C3.75193 2.65385 3.35395 3.00099 3.291 3.46503C3.0978 4.88944 2.81272 7.17 2.71856 8.84527C2.62585 10.4946 2.65109 12.751 2.6822 14.1815C2.6926 14.6597 3.05981 15.0473 3.53704 15.0836C4.98994 15.1939 7.30426 15.3462 9 15.3462C10.6957 15.3462 13.0101 15.1939 14.463 15.0836C14.9402 15.0473 15.3074 14.6597 15.3178 14.1815C15.3489 12.751 15.3742 10.4946 15.2814 8.84527C15.1873 7.17 14.9022 4.88944 14.709 3.46503C14.6461 3.00099 14.2481 2.65385 13.7704 2.65385H4.22958Z" fill="#F7F7F7"/>
<path fill-rule="evenodd" clip-rule="evenodd" d="M5.92308 4.57692C6.2417 4.57692 6.5 4.83522 6.5 5.15385C6.5 6.53456 7.61929 7.65385 9 7.65385C10.3807 7.65385 11.5 6.53456 11.5 5.15385C11.5 4.83522 11.7583 4.57692 12.0769 4.57692C12.3955 4.57692 12.6538 4.83522 12.6538 5.15385C12.6538 7.17181 11.018 8.80769 9 8.80769C6.98204 8.80769 5.34615 7.17181 5.34615 5.15385C5.34615 4.83522 5.60445 4.57692 5.92308 4.57692Z" fill="#F7F7F7"/>
</svg>
