<svg width="18" height="18" viewBox="0 0 18 18" fill="none" xmlns="http://www.w3.org/2000/svg">
<path d="M8.68671 10.4875C8.7269 10.5695 8.78292 10.6428 8.85154 10.703C8.92016 10.7633 9.00004 10.8094 9.08655 10.8386C9.17307 10.8678 9.26451 10.8796 9.35561 10.8734C9.44672 10.8671 9.53568 10.8428 9.61737 10.802C9.69906 10.7612 9.77186 10.7046 9.83157 10.6355C9.89128 10.5664 9.93673 10.4862 9.96529 10.3995C9.99385 10.3127 10.005 10.2212 9.99797 10.1301C9.99099 10.0391 9.96605 9.95031 9.92459 9.86894L6.11894 2.2576C6.06148 2.14263 5.97314 2.04595 5.86382 1.97837C5.7545 1.91079 5.62852 1.875 5.5 1.875C5.37148 1.875 5.2455 1.91079 5.13618 1.97837C5.02686 2.04595 4.93852 2.14263 4.88106 2.2576L1.07541 9.86894C1.03395 9.95031 1.00901 10.0391 1.00203 10.1301C0.995042 10.2212 1.00615 10.3127 1.03471 10.3995C1.06327 10.4862 1.10872 10.5664 1.16843 10.6355C1.22814 10.7046 1.30094 10.7612 1.38263 10.802C1.46432 10.8428 1.55328 10.8671 1.64439 10.8734C1.73549 10.8796 1.82694 10.8678 1.91345 10.8386C1.99996 10.8094 2.07984 10.7633 2.14846 10.703C2.21708 10.6428 2.2731 10.5695 2.31329 10.4875L3.50549 8.10241H7.49382L8.68671 10.4875ZM4.19743 6.71853L5.49896 4.11407L6.80188 6.71853H4.19743Z" fill="#F7F7F7"/>
<path d="M16.7935 8.0946C16.6612 7.95399 16.4818 7.875 16.2948 7.875C16.1077 7.875 15.9283 7.95399 15.7961 8.0946L9.24096 15.0646L6.21275 11.8447C6.14768 11.7731 6.06985 11.716 5.98379 11.6766C5.89773 11.6373 5.80517 11.6167 5.71151 11.6158C5.61785 11.6149 5.52497 11.6339 5.43828 11.6716C5.35159 11.7093 5.27283 11.765 5.2066 11.8354C5.14037 11.9059 5.08799 11.9896 5.05253 12.0818C5.01706 12.174 4.99921 12.2727 5.00003 12.3723C5.00084 12.4719 5.0203 12.5703 5.05727 12.6618C5.09424 12.7533 5.14797 12.8361 5.21534 12.9053L8.74225 16.6554C8.87453 16.796 9.05391 16.875 9.24096 16.875C9.428 16.875 9.60738 16.796 9.73966 16.6554L16.7935 9.15514C16.9257 9.01448 17 8.82375 17 8.62487C17 8.42599 16.9257 8.23525 16.7935 8.0946Z" fill="#F7F7F7"/>
</svg>
