<svg width="18" height="18" viewBox="0 0 18 18" fill="none" xmlns="http://www.w3.org/2000/svg">
<path d="M9.742 3.5C10.2649 3.5005 10.7663 3.70268 11.1361 4.06217C11.5058 4.42166 11.7138 4.9091 11.7143 5.4175C11.7143 5.58326 11.782 5.74223 11.9026 5.85944C12.0231 5.97665 12.1866 6.0425 12.3571 6.0425C12.5276 6.0425 12.6912 5.97665 12.8117 5.85944C12.9323 5.74223 13 5.58326 13 5.4175V5.375C13 5.36312 13 5.3525 13 5.34063C12.9785 4.51421 12.6259 3.72861 12.0174 3.15128C11.4088 2.57396 10.5923 2.25055 9.742 2.25H9.14286V1.625C9.14286 1.45924 9.07513 1.30027 8.95457 1.18306C8.83401 1.06585 8.6705 1 8.5 1C8.3295 1 8.16599 1.06585 8.04543 1.18306C7.92487 1.30027 7.85714 1.45924 7.85714 1.625V2.25H7.258C6.48485 2.2508 5.73719 2.5189 5.14865 3.00636C4.56012 3.49383 4.16908 4.16889 4.04542 4.91089C3.92176 5.65289 4.07355 6.41346 4.47365 7.05666C4.87375 7.69986 5.49609 8.18376 6.22943 8.42188L7.85714 8.95V13.5H7.258C6.73507 13.4995 6.23371 13.2973 5.86395 12.9378C5.49418 12.5783 5.28622 12.0909 5.28571 11.5825C5.28571 11.4167 5.21798 11.2578 5.09743 11.1406C4.97687 11.0233 4.81335 10.9575 4.64286 10.9575C4.47236 10.9575 4.30885 11.0233 4.18829 11.1406C4.06773 11.2578 4 11.4167 4 11.5825V11.625C4 11.6369 4 11.6475 4 11.6594C4.02145 12.4858 4.37405 13.2714 4.98265 13.8487C5.59124 14.426 6.4077 14.7494 7.258 14.75H7.85714V15.375C7.85714 15.5408 7.92487 15.6997 8.04543 15.8169C8.16599 15.9342 8.3295 16 8.5 16C8.6705 16 8.83401 15.9342 8.95457 15.8169C9.07513 15.6997 9.14286 15.5408 9.14286 15.375V14.75H9.742C10.5152 14.7492 11.2628 14.4811 11.8513 13.9936C12.4399 13.5062 12.8309 12.8311 12.9546 12.0891C13.0782 11.3471 12.9265 10.5865 12.5263 9.94334C12.1262 9.30014 11.5039 8.81624 10.7706 8.57812L9.14286 8.05V3.5H9.742ZM10.3656 9.76312C10.8101 9.90695 11.1874 10.1999 11.43 10.5895C11.6726 10.9791 11.7646 11.44 11.6896 11.8896C11.6145 12.3391 11.3774 12.7481 11.0205 13.0431C10.6637 13.3382 10.2105 13.5002 9.742 13.5H9.14286V9.36687L10.3656 9.76312ZM7.85714 7.63312L6.63571 7.23688C6.19133 7.09308 5.81409 6.80023 5.57149 6.41074C5.32889 6.02125 5.23677 5.56053 5.31162 5.11105C5.38647 4.66156 5.62341 4.25264 5.98002 3.95746C6.33663 3.66229 6.78965 3.50013 7.258 3.5H7.85714V7.63312Z" fill="#F7F7F7"/>
</svg>
