<svg width="18" height="18" viewBox="0 0 18 18" fill="none" xmlns="http://www.w3.org/2000/svg">
<path d="M16 3.16918V5.50642C16 5.66139 15.9384 5.81001 15.8289 5.91959C15.7193 6.02917 15.5707 6.09073 15.4157 6.09073C15.2608 6.09073 15.1121 6.02917 15.0026 5.91959C14.893 5.81001 14.8314 5.66139 14.8314 5.50642V4.00883L11.7347 7.08932C11.6242 7.19548 11.4765 7.254 11.3233 7.25225C11.17 7.2505 11.0236 7.18863 10.9156 7.07998C10.8076 6.97132 10.7465 6.82456 10.7456 6.67133C10.7448 6.5181 10.8041 6.37066 10.9109 6.26076L14.0193 3.16918H12.4943C12.3393 3.16918 12.1907 3.10761 12.0812 2.99804C11.9716 2.88846 11.91 2.73983 11.91 2.58486C11.91 2.4299 11.9716 2.28127 12.0812 2.17169C12.1907 2.06212 12.3393 2.00055 12.4943 2.00055H14.8314C15.1414 2.00055 15.4386 2.12368 15.6577 2.34284C15.8769 2.56199 16 2.85924 16 3.16918ZM15.4712 11.7813C15.8098 12.1209 16 12.5809 16 13.0604C16 13.5399 15.8098 13.9999 15.4712 14.3394L14.9384 14.953C10.1525 19.5328 -1.49168 7.89158 3.01898 3.09146L3.69032 2.50715C4.03043 2.17805 4.48632 1.99592 4.95955 2.00007C5.43279 2.00422 5.88541 2.19433 6.21968 2.52936C6.23721 2.54747 7.31989 3.95449 7.31989 3.95449C7.64105 4.2919 7.81988 4.74008 7.81923 5.20591C7.81858 5.67174 7.63849 6.11942 7.31638 6.45592L6.6392 7.30726C7.01364 8.2171 7.56416 9.04398 8.25913 9.74039C8.9541 10.4368 9.77983 10.989 10.6889 11.3653L11.5448 10.6846C11.8813 10.3626 12.3288 10.1826 12.7945 10.182C13.2602 10.1813 13.7082 10.3601 14.0456 10.6811C14.0456 10.6811 15.4531 11.7638 15.4712 11.7813ZM14.6678 12.6309C14.6678 12.6309 13.2696 11.5546 13.2515 11.5371C13.1312 11.4177 12.9685 11.3508 12.799 11.3508C12.6295 11.3508 12.4668 11.4177 12.3465 11.5371C12.3307 11.5523 11.1522 12.4919 11.1522 12.4919C11.0728 12.5551 10.9783 12.5965 10.878 12.6121C10.7777 12.6277 10.675 12.6168 10.5802 12.5807C9.40181 12.1424 8.33151 11.4558 7.44192 10.5674C6.55233 9.67898 5.86428 8.60956 5.42448 7.43172C5.386 7.33596 5.37357 7.23173 5.38845 7.1296C5.40333 7.02748 5.44499 6.93113 5.5092 6.85033C5.5092 6.85033 6.44814 5.67178 6.46391 5.656C6.58327 5.53563 6.65023 5.37297 6.65023 5.20345C6.65023 5.03394 6.58327 4.87128 6.46391 4.7509C6.44639 4.73338 5.37014 3.33454 5.37014 3.33454C5.24804 3.22491 5.08863 3.16613 4.92459 3.17026C4.76055 3.17439 4.6043 3.24111 4.48787 3.35674L3.81653 3.94105C0.518834 7.90385 10.6112 17.4375 14.0836 14.156L14.6164 13.5424C14.742 13.4272 14.8177 13.2674 14.8273 13.0971C14.8369 12.9269 14.7797 12.7596 14.6678 12.6309Z" fill="#F7F7F7"/>
</svg>
