<svg width="38" height="38" viewBox="0 0 38 38" fill="none" xmlns="http://www.w3.org/2000/svg">
<g clip-path="url(#clip0_1211_9404)">
<path d="M19 38C29.4934 38 38 29.4934 38 19C38 8.50659 29.4934 0 19 0C8.50659 0 0 8.50659 0 19C0 29.4934 8.50659 38 19 38Z" fill="#F0F0F0"/>
<path d="M18.9995 0C11.4667 0 4.95802 4.38373 1.88477 10.7392H36.1141C33.0409 4.38373 26.5321 0 18.9995 0Z" fill="#FF9811"/>
<path d="M18.9995 38.0009C26.5321 38.0009 33.0409 33.6171 36.1142 27.2617H1.88477C4.95802 33.6171 11.4667 38.0009 18.9995 38.0009Z" fill="#6DA544"/>
<path d="M18.9993 25.6079C22.6491 25.6079 25.6079 22.6491 25.6079 18.9993C25.6079 15.3494 22.6491 12.3906 18.9993 12.3906C15.3494 12.3906 12.3906 15.3494 12.3906 18.9993C12.3906 22.6491 15.3494 25.6079 18.9993 25.6079Z" fill="#0052B4"/>
<path d="M18.9996 23.13C21.2807 23.13 23.13 21.2807 23.13 18.9996C23.13 16.7184 21.2807 14.8691 18.9996 14.8691C16.7184 14.8691 14.8691 16.7184 14.8691 18.9996C14.8691 21.2807 16.7184 23.13 18.9996 23.13Z" fill="#F0F0F0"/>
<path d="M18.9999 13.9023L20.2742 16.7923L23.414 16.4508L21.5484 18.9992L23.414 21.5477L20.2742 21.2062L18.9999 24.0961L17.7257 21.2062L14.5859 21.5476L16.4515 18.9992L14.5859 16.4508L17.7257 16.7923L18.9999 13.9023Z" fill="#0052B4"/>
</g>
<defs>
<clipPath id="clip0_1211_9404">
<rect width="38" height="38" fill="white"/>
</clipPath>
</defs>
</svg>
