<svg width="13" height="12" viewBox="0 0 13 12" fill="none" xmlns="http://www.w3.org/2000/svg">
<g clip-path="url(#clip0_680_6237)">
<path d="M6.21289 0C5.02621 0 3.86617 0.351894 2.87947 1.01118C1.89278 1.67047 1.12374 2.60754 0.669616 3.7039C0.21549 4.80026 0.0966703 6.00666 0.328182 7.17054C0.559693 8.33443 1.13114 9.40353 1.97025 10.2426C2.80937 11.0818 3.87847 11.6532 5.04235 11.8847C6.20624 12.1162 7.41264 11.9974 8.50899 11.5433C9.60535 11.0892 10.5424 10.3201 11.2017 9.33342C11.861 8.34673 12.2129 7.18669 12.2129 6C12.2112 4.40923 11.5785 2.88411 10.4536 1.75926C9.32879 0.634414 7.80366 0.00172054 6.21289 0ZM6.21289 11C5.22399 11 4.25729 10.7068 3.43504 10.1573C2.6128 9.60794 1.97193 8.82705 1.5935 7.91342C1.21506 6.99979 1.11604 5.99445 1.30897 5.02455C1.50189 4.05464 1.9781 3.16373 2.67736 2.46447C3.37662 1.7652 4.26754 1.289 5.23744 1.09607C6.20735 0.903148 7.21268 1.00216 8.12631 1.3806C9.03994 1.75904 9.82083 2.3999 10.3702 3.22215C10.9196 4.04439 11.2129 5.01109 11.2129 6C11.2114 7.32564 10.6842 8.59656 9.74682 9.53393C8.80945 10.4713 7.53853 10.9985 6.21289 11Z" fill="#262626"/>
<path d="M6.21289 5H5.71289C5.58028 5 5.45311 5.05268 5.35934 5.14645C5.26557 5.24021 5.21289 5.36739 5.21289 5.5C5.21289 5.63261 5.26557 5.75979 5.35934 5.85355C5.45311 5.94732 5.58028 6 5.71289 6H6.21289V9C6.21289 9.13261 6.26557 9.25979 6.35934 9.35355C6.45311 9.44732 6.58028 9.5 6.71289 9.5C6.8455 9.5 6.97268 9.44732 7.06644 9.35355C7.16021 9.25979 7.21289 9.13261 7.21289 9V6C7.21289 5.73478 7.10753 5.48043 6.92 5.29289C6.73246 5.10536 6.47811 5 6.21289 5Z" fill="#262626"/>
<path d="M6.21289 4C6.6271 4 6.96289 3.66421 6.96289 3.25C6.96289 2.83579 6.6271 2.5 6.21289 2.5C5.79868 2.5 5.46289 2.83579 5.46289 3.25C5.46289 3.66421 5.79868 4 6.21289 4Z" fill="#262626"/>
</g>
<defs>
<clipPath id="clip0_680_6237">
<rect width="12" height="12" fill="white" transform="translate(0.212891)"/>
</clipPath>
</defs>
</svg>
