<svg width="13" height="12" viewBox="0 0 13 12" fill="none" xmlns="http://www.w3.org/2000/svg">
<g clip-path="url(#clip0_680_6245)">
<path d="M5.71289 11.5C5.71289 11.776 5.48889 12 5.21289 12H2.71289C1.33439 12 0.212891 10.8785 0.212891 9.5V2.5C0.212891 1.1215 1.33439 0 2.71289 0H6.71289C8.09139 0 9.21289 1.1215 9.21289 2.5V9C9.21289 9.276 8.98939 9.5 8.71289 9.5C8.43639 9.5 8.21289 9.276 8.21289 9V2.5C8.21289 1.673 7.53989 1 6.71289 1H2.71289C1.88589 1 1.21289 1.673 1.21289 2.5V9.5C1.21289 10.327 1.88589 11 2.71289 11H5.21289C5.48889 11 5.71289 11.224 5.71289 11.5ZM6.71289 2.5H2.71289C2.43689 2.5 2.21289 2.724 2.21289 3C2.21289 3.276 2.43689 3.5 2.71289 3.5H6.71289C6.98939 3.5 7.21289 3.276 7.21289 3C7.21289 2.724 6.98939 2.5 6.71289 2.5ZM6.71289 5H2.71289C2.43689 5 2.21289 5.224 2.21289 5.5C2.21289 5.776 2.43689 6 2.71289 6H6.71289C6.98939 6 7.21289 5.776 7.21289 5.5C7.21289 5.224 6.98939 5 6.71289 5ZM5.21289 7.5H2.71289C2.43689 7.5 2.21289 7.724 2.21289 8C2.21289 8.276 2.43689 8.5 2.71289 8.5H5.21289C5.48889 8.5 5.71289 8.276 5.71289 8C5.71289 7.724 5.48889 7.5 5.21289 7.5ZM12.0604 8.141C11.8624 7.949 11.5459 7.954 11.3534 8.152L8.79989 10.79C8.52739 11.074 8.03589 11.0665 7.77189 10.775L6.57639 9.5075C6.38739 9.3065 6.07039 9.2975 5.86939 9.4865C5.66839 9.6755 5.65939 9.9925 5.84839 10.1935L7.04389 11.461C7.67989 12.162 8.85439 12.178 9.51239 11.4915L12.0719 8.8475C12.2639 8.649 12.2589 8.333 12.0604 8.141Z" fill="#262626"/>
</g>
<defs>
<clipPath id="clip0_680_6245">
<rect width="12" height="12" fill="white" transform="translate(0.212891)"/>
</clipPath>
</defs>
</svg>
