<svg width="35" height="35" viewBox="0 0 35 35" fill="none" xmlns="http://www.w3.org/2000/svg">
<path d="M18.9583 11.6667V13.125C18.9583 13.93 18.305 14.5833 17.5 14.5833C16.695 14.5833 16.0417 13.93 16.0417 13.125V11.6667C16.0417 10.8617 16.695 10.2083 17.5 10.2083C18.305 10.2083 18.9583 10.8617 18.9583 11.6667ZM8.75 12.3958V5.10417C8.75 2.28958 11.0396 0 13.8542 0H21.1458C23.9604 0 26.25 2.28958 26.25 5.10417V12.3958C26.25 15.1521 24.0538 17.4067 21.3179 17.4971L19.0006 19.7925C18.5777 20.2067 18.0265 20.4138 17.4767 20.4138C16.921 20.4138 16.3669 20.2023 15.9454 19.7823L13.6748 17.4971C10.9433 17.4023 8.75 15.1506 8.75 12.3958ZM11.6667 12.3958C11.6667 13.6019 12.6481 14.5833 13.8542 14.5833H14.2844C14.6738 14.5833 15.0442 14.7379 15.3183 15.0135L17.481 17.1908L19.689 15.0048C19.9631 14.735 20.3306 14.5833 20.7156 14.5833H21.1458C22.3519 14.5833 23.3333 13.6019 23.3333 12.3958V5.10417C23.3333 3.89813 22.3519 2.91667 21.1458 2.91667H13.8542C12.6481 2.91667 11.6667 3.89813 11.6667 5.10417V12.3958ZM31.3571 2.43688C30.6571 2.03292 29.7675 2.27208 29.3635 2.96771C28.9596 3.66479 29.1973 4.55729 29.8944 4.96125C31.2652 5.75604 32.0833 7.17354 32.0833 8.75292V24.4913C32.0833 26.6073 30.5725 28.4171 28.4915 28.7963L19.3258 30.4631C19.2033 30.485 19.0808 30.4792 18.9583 30.4967V24.7946C18.9583 23.9896 18.305 23.3363 17.5 23.3363C16.695 23.3363 16.0417 23.9896 16.0417 24.7946V30.4967C15.9192 30.4792 15.7952 30.485 15.6742 30.4631L6.50854 28.7963C4.4275 28.4185 2.91667 26.6073 2.91667 24.4913V8.75146C2.91667 7.17208 3.73479 5.75458 5.10563 4.95979C5.80271 4.55583 6.04042 3.66333 5.63646 2.96625C5.2325 2.27062 4.34 2.03146 3.64292 2.43542C1.39708 3.73917 0 6.16 0 8.75146V24.4898C0 28.016 2.51854 31.0333 5.98792 31.6633L15.1521 33.3302C15.9308 33.4717 16.7154 33.5431 17.5 33.5431C18.2846 33.5431 19.0692 33.4717 19.8479 33.3302L29.0121 31.6633C32.4815 31.0319 35 28.016 35 24.4898V8.75146C35 6.15854 33.6029 3.73917 31.3556 2.43688H31.3571ZM17.5 8.75C18.7075 8.75 19.6875 7.77 19.6875 6.5625C19.6875 5.355 18.7075 4.375 17.5 4.375C16.2925 4.375 15.3125 5.355 15.3125 6.5625C15.3125 7.77 16.2925 8.75 17.5 8.75Z" fill="#464646"/>
</svg>
