<svg width="13" height="12" viewBox="0 0 13 12" fill="none" xmlns="http://www.w3.org/2000/svg">
<g clip-path="url(#clip0_680_6242)">
<path d="M11.2129 7.2685V6.5C11.2129 5.397 10.3159 4.5 9.21289 4.5C8.10989 4.5 7.21289 5.397 7.21289 6.5V7.2685C6.61539 7.615 6.21289 8.2615 6.21289 9V10C6.21289 11.103 7.10989 12 8.21289 12H10.2129C11.3159 12 12.2129 11.103 12.2129 10V9C12.2129 8.2615 11.8104 7.615 11.2129 7.2685ZM8.21289 6.5C8.21289 5.9485 8.66139 5.5 9.21289 5.5C9.76439 5.5 10.2129 5.9485 10.2129 6.5V7H8.21289V6.5ZM11.2129 10C11.2129 10.5515 10.7644 11 10.2129 11H8.21289C7.66139 11 7.21289 10.5515 7.21289 10V9C7.21289 8.4485 7.66139 8 8.21289 8H10.2129C10.7644 8 11.2129 8.4485 11.2129 9V10ZM9.96289 9.5C9.96289 9.914 9.62689 10.25 9.21289 10.25C8.79889 10.25 8.46289 9.914 8.46289 9.5C8.46289 9.086 8.79889 8.75 9.21289 8.75C9.62689 8.75 9.96289 9.086 9.96289 9.5ZM4.21289 6C5.86739 6 7.21289 4.6545 7.21289 3C7.21289 1.3455 5.86739 0 4.21289 0C2.55839 0 1.21289 1.3455 1.21289 3C1.21289 4.6545 2.55839 6 4.21289 6ZM4.21289 1C5.31589 1 6.21289 1.897 6.21289 3C6.21289 4.103 5.31589 5 4.21289 5C3.10989 5 2.21289 4.103 2.21289 3C2.21289 1.897 3.10989 1 4.21289 1ZM5.20789 7.6055C5.16889 7.879 4.91639 8.07 4.64239 8.0305C4.50039 8.01 4.35539 8 4.21289 8C2.55839 8 1.21289 9.3455 1.21289 11V11.5C1.21289 11.776 0.988891 12 0.712891 12C0.436891 12 0.212891 11.776 0.212891 11.5V11C0.212891 8.7945 2.00739 7 4.21289 7C4.40239 7 4.59439 7.0135 4.78339 7.0405C5.05689 7.0795 5.24689 7.3325 5.20839 7.606L5.20789 7.6055Z" fill="#262626"/>
</g>
<defs>
<clipPath id="clip0_680_6242">
<rect width="12" height="12" fill="white" transform="translate(0.212891)"/>
</clipPath>
</defs>
</svg>
