<svg width="38" height="23" viewBox="0 0 38 23" fill="none" xmlns="http://www.w3.org/2000/svg">
<g clip-path="url(#clip0_1215_7474)">
<path fill-rule="evenodd" clip-rule="evenodd" d="M13.7207 20.5115H23.8911V2.45508H13.7207V20.5115Z" fill="#FF5F00"/>
<path fill-rule="evenodd" clip-rule="evenodd" d="M14.3661 11.4834C14.3661 7.82022 16.1022 4.55765 18.8056 2.45522C16.8283 0.917399 14.3338 0 11.6224 0C5.20338 0 0 5.14139 0 11.4834C0 17.8255 5.20338 22.9669 11.6224 22.9669C14.3338 22.9669 16.8283 22.0495 18.8056 20.5116C16.1022 18.4089 14.3661 15.1466 14.3661 11.4834Z" fill="#EB001B"/>
<path fill-rule="evenodd" clip-rule="evenodd" d="M37.2474 18.5993V18.1537H37.1295L36.9942 18.4603L36.8586 18.1537H36.7408V18.5993H36.8238V18.2631L36.951 18.5531H37.0372L37.1644 18.2625V18.5993H37.2474ZM36.5012 18.5993V18.2296H36.6523V18.1543H36.2681V18.2296H36.4189V18.5993H36.5012ZM37.6103 11.4834C37.6103 17.8255 32.4066 22.9669 25.9879 22.9669C23.2764 22.9669 20.7816 22.0495 18.8047 20.5116C21.5081 18.4092 23.2442 15.1466 23.2442 11.4834C23.2442 7.82054 21.5081 4.55796 18.8047 2.45522C20.7816 0.917398 23.2764 0 25.9879 0C32.4066 0 37.6103 5.14139 37.6103 11.4834Z" fill="#F79E1B"/>
</g>
<defs>
<clipPath id="clip0_1215_7474">
<rect width="38" height="23" fill="white"/>
</clipPath>
</defs>
</svg>
