<svg width="24" height="25" viewBox="0 0 24 25" fill="none" xmlns="http://www.w3.org/2000/svg">
<path fill-rule="evenodd" clip-rule="evenodd" d="M12 5.94869C9.73557 5.94869 6.65128 6.14281 4.69268 6.28555C4.04222 6.33296 3.53846 6.84786 3.53846 7.47676V8.18742L11.3774 12.3048C11.7646 12.5082 12.2354 12.5082 12.6226 12.3048L20.4615 8.18742V7.47676C20.4615 6.84786 19.9578 6.33296 19.3073 6.28555C17.3487 6.14281 14.2644 5.94869 12 5.94869ZM20.4615 9.85136L13.3698 13.5763C12.5179 14.0238 11.4821 14.0238 10.6302 13.5763L3.53846 9.85136V17.5115C3.53846 18.1404 4.04222 18.6553 4.69268 18.7027C6.65128 18.8455 9.73557 19.0396 12 19.0396C14.2644 19.0396 17.3487 18.8455 19.3073 18.7027C19.9578 18.6553 20.4615 18.1404 20.4615 17.5115V9.85136ZM4.57444 4.83531C6.53421 4.69248 9.67068 4.49414 12 4.49414C14.3293 4.49414 17.4658 4.69248 19.4256 4.83531C20.8902 4.94205 22 6.10003 22 7.47676V17.5115C22 18.8883 20.8902 20.0462 19.4256 20.153C17.4658 20.2958 14.3293 20.4941 12 20.4941C9.67068 20.4941 6.53421 20.2958 4.57444 20.153C3.10982 20.0462 2 18.8883 2 17.5115V7.47676C2 6.10003 3.10982 4.94205 4.57444 4.83531Z" fill="#7A869A"/>
</svg>
