<svg width="30" height="30" viewBox="0 0 30 30" fill="none" xmlns="http://www.w3.org/2000/svg">
<g clip-path="url(#clip0_536_10757)">
<path fill-rule="evenodd" clip-rule="evenodd" d="M15 0C6.55 0 0 6.19 0 14.55C0 18.9225 1.7925 22.7025 4.71125 25.3125C4.95625 25.5313 5.10375 25.8388 5.115 26.1675L5.19625 28.835C5.2225 29.6863 6.10125 30.24 6.88 29.8963L9.8575 28.5825C10.11 28.4713 10.3925 28.4513 10.6588 28.5238C12.0263 28.9 13.4825 29.1 15 29.1C23.45 29.1 30 22.91 30 14.55C30 6.19 23.45 0 15 0ZM24.0075 11.195L19.6012 18.1863C18.9 19.2988 17.3988 19.575 16.3475 18.7863L12.8425 16.1575C12.5212 15.9163 12.0787 15.9175 11.7587 16.1613L7.025 19.7525C6.39375 20.2313 5.56875 19.4763 5.99125 18.805L10.3975 11.8138C11.0988 10.7013 12.6 10.425 13.6512 11.2138L17.1562 13.8425C17.4775 14.0838 17.92 14.0825 18.24 13.8388L22.9737 10.2475C23.6062 9.76875 24.43 10.5238 24.0075 11.195Z" fill="#7A869A"/>
</g>
<defs>
<clipPath id="clip0_536_10757">
<rect width="30" height="30" fill="white"/>
</clipPath>
</defs>
</svg>
