<svg width="24" height="25" viewBox="0 0 24 25" fill="none" xmlns="http://www.w3.org/2000/svg">
<g clip-path="url(#clip0_1207_8209)">
<path d="M16.322 21.495C10.2237 21.7013 -0.762251 10.8038 4.33849 4.89525L5.20099 4.14525C5.63758 3.7232 6.2228 3.49004 6.83001 3.49621C7.43722 3.50239 8.01757 3.74741 8.44549 4.17825C8.46861 4.20181 8.49016 4.22686 8.50999 4.25325L9.85999 6.0075C10.2703 6.44163 10.4982 7.01669 10.4968 7.614C10.4954 8.21131 10.2648 8.7853 9.85249 9.21751L8.98399 10.3095C9.46483 11.4773 10.1716 12.5387 11.0636 13.4326C11.9557 14.3266 13.0155 15.0356 14.1822 15.519L15.2802 14.6453C15.7181 14.2431 16.2906 14.0196 16.8851 14.0188C17.4796 14.018 18.0528 14.2399 18.4917 14.6408L20.2467 15.9908C20.2729 16.0105 20.298 16.0318 20.3217 16.0545C20.7545 16.4913 20.9974 17.0813 20.9974 17.6963C20.9974 18.3112 20.7545 18.9012 20.3217 19.338L19.6385 20.1255C19.2051 20.5636 18.6884 20.9105 18.1188 21.1457C17.5492 21.3809 16.9382 21.4997 16.322 21.495ZM6.80374 4.995C6.69596 4.99492 6.58922 5.01607 6.48961 5.05725C6.39001 5.09843 6.29949 5.15883 6.22324 5.235L5.35999 5.985C1.1255 11.076 14.0832 23.3123 18.5405 19.101L19.2245 18.3128C19.3058 18.2404 19.372 18.1526 19.4192 18.0546C19.4665 17.9565 19.4938 17.8501 19.4998 17.7414C19.5057 17.6327 19.49 17.5239 19.4537 17.4213C19.4174 17.3187 19.3612 17.2243 19.2882 17.1435L17.543 15.8033C17.5162 15.7836 17.4912 15.7618 17.468 15.738C17.3115 15.5889 17.1036 15.5057 16.8875 15.5057C16.6713 15.5057 16.4635 15.5889 16.307 15.738C16.2871 15.7582 16.266 15.7772 16.244 15.795L14.7755 16.965C14.6735 17.0462 14.5522 17.0993 14.4235 17.1193C14.2947 17.1393 14.163 17.1254 14.0412 17.079C12.5293 16.5158 11.1561 15.6342 10.0147 14.4939C8.87328 13.3536 7.99026 11.9813 7.42549 10.47C7.37549 10.3465 7.35928 10.212 7.37852 10.0802C7.39777 9.94834 7.45178 9.82403 7.53499 9.72001L8.70049 8.25301C8.71782 8.23078 8.73661 8.20974 8.75674 8.19001C8.90994 8.03549 8.9959 7.82672 8.9959 7.60913C8.9959 7.39154 8.90994 7.18277 8.75674 7.02825C8.73336 7.00493 8.7118 6.97986 8.69224 6.95326L7.35499 5.21025C7.20389 5.07373 7.00738 4.99834 6.80374 4.99875V4.995Z" fill="#7A869A"/>
</g>
<defs>
<clipPath id="clip0_1207_8209">
<rect width="18" height="18" fill="white" transform="translate(3 3.49414)"/>
</clipPath>
</defs>
</svg>
