<svg width="53" height="44" viewBox="0 0 53 44" fill="none" xmlns="http://www.w3.org/2000/svg">
<path d="M8.3649 35.1148H22.0641L21.2148 42.8763L30.9328 35.1148H44.632C48.7801 35.1148 52.1433 31.7351 52.1433 27.5666V8.02762C52.1433 3.85919 48.7801 0.479492 44.632 0.479492H8.3687C4.22064 0.479492 0.857422 3.85919 0.857422 8.02762V27.5666C0.857422 31.7351 4.21684 35.1148 8.3649 35.1148Z" fill="white"/>
<path d="M21.2139 43.3646C21.1343 43.3646 21.0547 43.3455 20.9826 43.3036C20.812 43.2084 20.7134 43.0217 20.7361 42.8273L21.5286 35.6031H8.36783C3.96193 35.6031 0.375 31.9986 0.375 27.571V8.03204C0.375 3.60451 3.96193 0 8.36783 0H44.6311C49.037 0 52.6239 3.60451 52.6239 8.03204V27.571C52.6239 31.9986 49.037 35.6031 44.6311 35.6031H31.1025L21.5172 43.2617C21.4262 43.3265 21.3201 43.3646 21.2139 43.3646ZM8.36403 0.967821C4.48896 0.967821 1.3343 4.13414 1.3343 8.03204V27.571C1.3343 31.4651 4.48896 34.6353 8.36403 34.6353H22.0594C22.1959 34.6353 22.3287 34.6924 22.4197 34.7953C22.5107 34.8982 22.5561 35.0354 22.541 35.1725L21.8168 41.7795L30.6286 34.742C30.712 34.6734 30.8182 34.6353 30.9281 34.6353H44.6273C48.5024 34.6353 51.6571 31.4689 51.6571 27.571V8.03204C51.6571 4.13795 48.5024 0.967821 44.6273 0.967821H8.36403Z" fill="black"/>
<path d="M13.4531 11.7846V24.9338C13.4531 26.0807 14.3783 27.0104 15.5196 27.0104H37.4695C38.6108 27.0104 39.5359 26.0807 39.5359 24.9338V11.7846C39.5359 11.1864 39.2857 10.6491 38.8837 10.2719C38.5122 9.92138 38.0155 9.70801 37.4695 9.70801H15.5196C14.9698 9.70801 14.4731 9.92138 14.1053 10.2719C13.7072 10.6491 13.4531 11.1864 13.4531 11.7846Z" fill="#FF954D"/>
<path d="M37.0635 25.6995C36.9725 25.6995 36.8815 25.6728 36.8019 25.6232L26.2346 18.7686C26.0108 18.6238 25.9464 18.3228 26.0905 18.098C26.2346 17.8732 26.5341 17.8084 26.7578 17.9532L37.3251 24.8078C37.5488 24.9526 37.6133 25.2536 37.4693 25.4784C37.3783 25.6194 37.2228 25.6995 37.0635 25.6995Z" fill="black"/>
<path d="M15.9298 25.6995C15.7706 25.6995 15.6151 25.6194 15.5241 25.4784C15.38 25.2536 15.4445 24.9526 15.6682 24.8078L26.2355 17.9532C26.4592 17.8084 26.7587 17.8732 26.9028 18.098C27.0469 18.3228 26.9825 18.6238 26.7588 18.7686L16.1914 25.6232C16.1118 25.6728 16.0208 25.6995 15.9298 25.6995Z" fill="black"/>
<path d="M14.1055 10.272L24.3126 19.1232C25.5677 20.2129 27.4256 20.2129 28.6806 19.1232L38.8877 10.272C38.5161 9.92142 38.0194 9.70806 37.4734 9.70806H15.5235C14.9738 9.70425 14.4771 9.92142 14.1055 10.272Z" fill="#F7802F"/>
<path d="M26.4959 20.4162C25.6011 20.4162 24.71 20.1076 23.9972 19.4903L13.7901 10.6391C13.6878 10.5476 13.627 10.4181 13.6232 10.2809C13.6194 10.1438 13.6764 10.0104 13.7749 9.91896C14.2489 9.46935 14.8707 9.22168 15.5228 9.22168H37.4728C38.1249 9.22168 38.7429 9.46935 39.2169 9.91896C39.3154 10.0142 39.3724 10.1438 39.3686 10.2809C39.3648 10.4181 39.3041 10.5476 39.2018 10.6391L28.9946 19.4903C28.2818 20.1076 27.3908 20.4162 26.4959 20.4162ZM14.8973 10.319L24.6266 18.755C25.711 19.6923 27.2808 19.6923 28.3652 18.755L38.0945 10.319C37.9012 10.2352 37.6889 10.1933 37.4728 10.1933H15.5228C15.3029 10.1933 15.0944 10.2352 14.8973 10.319Z" fill="black"/>
<path d="M39.5392 15.9186C42.6426 15.9186 45.1584 13.3905 45.1584 10.2718C45.1584 7.15316 42.6426 4.625 39.5392 4.625C36.4358 4.625 33.9199 7.15316 33.9199 10.2718C33.9199 13.3905 36.4358 15.9186 39.5392 15.9186Z" fill="white"/>
<path d="M39.5402 16.4028C36.1733 16.4028 33.4395 13.6518 33.4395 10.2683C33.4395 6.88479 36.1771 4.13379 39.5402 4.13379C42.9034 4.13379 45.6448 6.88479 45.6448 10.2683C45.6448 13.6518 42.9072 16.4028 39.5402 16.4028ZM39.5402 5.1054C36.7079 5.1054 34.4025 7.42204 34.4025 10.2683C34.4025 13.1146 36.7079 15.4312 39.5402 15.4312C42.3726 15.4312 44.678 13.1146 44.678 10.2683C44.678 7.42204 42.3726 5.1054 39.5402 5.1054Z" fill="black"/>
<path d="M40.3312 13.0838H39.5463V8.31336L38.75 8.80488V7.9895L39.5463 7.45605H40.3312V13.0838Z" fill="black"/>
</svg>
