<svg width="24" height="24" viewBox="0 0 24 24" fill="none" xmlns="http://www.w3.org/2000/svg">
<path d="M17.25 9.318V8.25C17.25 6.85761 16.6969 5.52226 15.7123 4.53769C14.7277 3.55312 13.3924 3 12 3C10.6076 3 9.27226 3.55312 8.28769 4.53769C7.30312 5.52226 6.75 6.85761 6.75 8.25V9.318C6.08202 9.60953 5.51347 10.0894 5.11387 10.6989C4.71428 11.3084 4.50096 12.0212 4.5 12.75V17.25C4.50119 18.2442 4.89666 19.1973 5.59966 19.9003C6.30267 20.6033 7.2558 20.9988 8.25 21H15.75C16.7442 20.9988 17.6973 20.6033 18.4003 19.9003C19.1033 19.1973 19.4988 18.2442 19.5 17.25V12.75C19.499 12.0212 19.2857 11.3084 18.8861 10.6989C18.4865 10.0894 17.918 9.60953 17.25 9.318ZM8.25 8.25C8.25 7.25544 8.64509 6.30161 9.34835 5.59835C10.0516 4.89509 11.0054 4.5 12 4.5C12.9946 4.5 13.9484 4.89509 14.6517 5.59835C15.3549 6.30161 15.75 7.25544 15.75 8.25V9H8.25V8.25ZM18 17.25C18 17.8467 17.7629 18.419 17.341 18.841C16.919 19.2629 16.3467 19.5 15.75 19.5H8.25C7.65326 19.5 7.08097 19.2629 6.65901 18.841C6.23705 18.419 6 17.8467 6 17.25V12.75C6 12.1533 6.23705 11.581 6.65901 11.159C7.08097 10.7371 7.65326 10.5 8.25 10.5H15.75C16.3467 10.5 16.919 10.7371 17.341 11.159C17.7629 11.581 18 12.1533 18 12.75V17.25Z" fill="#7A869A"/>
<path d="M12 13.5C11.8011 13.5 11.6103 13.579 11.4697 13.7197C11.329 13.8603 11.25 14.0511 11.25 14.25V15.75C11.25 15.9489 11.329 16.1397 11.4697 16.2803C11.6103 16.421 11.8011 16.5 12 16.5C12.1989 16.5 12.3897 16.421 12.5303 16.2803C12.671 16.1397 12.75 15.9489 12.75 15.75V14.25C12.75 14.0511 12.671 13.8603 12.5303 13.7197C12.3897 13.579 12.1989 13.5 12 13.5Z" fill="#7A869A"/>
</svg>
