<svg width="22" height="22" viewBox="0 0 22 22" fill="none" xmlns="http://www.w3.org/2000/svg">
<g clip-path="url(#clip0_680_6215)">
<path d="M11 22C9.5095 22 8.10333 21.3455 7.14267 20.2043C5.731 20.3665 4.27625 19.8321 3.22208 18.7788C2.16883 17.7247 1.63717 16.2672 1.76458 14.7803C0.6545 13.8967 0 12.4905 0 11C0 9.5095 0.6545 8.10333 1.79667 7.14267C1.63625 5.73375 2.16792 4.27625 3.22208 3.22208C4.27625 2.167 5.731 1.63625 7.21967 1.76458C8.10333 0.655417 9.5095 0 11 0C12.4905 0 13.8967 0.6545 14.8573 1.79575C16.2708 1.63442 17.7238 2.16792 18.7779 3.22117C19.8312 4.27533 20.3628 5.73283 20.2354 7.21967C21.3455 8.10333 22 9.5095 22 11C22 12.4905 21.3455 13.8967 20.2033 14.8573C20.3638 16.2663 19.8321 17.7238 18.7779 18.7779C17.7228 19.8321 16.2653 20.3628 14.7803 20.2354C13.8967 21.3446 12.4905 22 11 22ZM7.21692 18.403C7.73117 18.403 8.20783 18.6239 8.54425 19.0227C9.15658 19.7496 10.0513 20.1667 11 20.1667C11.9488 20.1667 12.8434 19.7496 13.4558 19.0227C13.8252 18.5836 14.3633 18.3618 14.9371 18.4085C15.8849 18.4883 16.8107 18.1518 17.4818 17.4808C18.1518 16.8108 18.4901 15.8831 18.4094 14.9362C18.3599 14.3642 18.5836 13.8243 19.0236 13.4539C19.7496 12.8425 20.1667 11.9469 20.1667 10.9991C20.1667 10.0512 19.7496 9.15567 19.0236 8.54425C18.5845 8.17483 18.3599 7.634 18.4094 7.062C18.4901 6.11508 18.1528 5.18742 17.4818 4.51733C16.8107 3.84725 15.8794 3.51267 14.938 3.58967C14.3642 3.64192 13.8252 3.41458 13.4558 2.97642C12.8434 2.2495 11.9488 1.83242 11 1.83242C10.0513 1.83242 9.15658 2.2495 8.54425 2.97642C8.17392 3.4155 7.634 3.6355 7.06292 3.59058C6.1105 3.50808 5.18925 3.84725 4.51825 4.51825C3.84817 5.18833 3.50992 6.116 3.59058 7.06292C3.64008 7.63492 3.41642 8.17483 2.97642 8.54517C2.25042 9.15658 1.83333 10.0522 1.83333 11C1.83333 11.9478 2.25042 12.8434 2.97642 13.4548C3.4155 13.8243 3.64008 14.3651 3.59058 14.9371C3.50992 15.884 3.84725 16.8117 4.51825 17.4818C5.18925 18.1528 6.12517 18.4883 7.062 18.4094C7.11425 18.4048 7.16558 18.403 7.21692 18.403ZM8.25 7.33333C7.744 7.33333 7.33333 7.744 7.33333 8.25C7.33333 8.756 7.744 9.16667 8.25 9.16667C8.756 9.16667 9.16667 8.756 9.16667 8.25C9.16667 7.744 8.756 7.33333 8.25 7.33333ZM13.75 12.8333C13.244 12.8333 12.8333 13.244 12.8333 13.75C12.8333 14.256 13.244 14.6667 13.75 14.6667C14.256 14.6667 14.6667 14.256 14.6667 13.75C14.6667 13.244 14.256 12.8333 13.75 12.8333ZM9.92933 14.2588L13.596 8.75875C13.8774 8.338 13.7638 7.76783 13.3421 7.48733C12.9195 7.205 12.3512 7.3205 12.0707 7.74125L8.404 13.2413C8.12258 13.662 8.23625 14.2322 8.65792 14.5127C8.81467 14.6172 8.99067 14.6667 9.16575 14.6667C9.46183 14.6667 9.75333 14.5237 9.92933 14.2588Z" fill="#464646"/>
</g>
<defs>
<clipPath id="clip0_680_6215">
<rect width="22" height="22" fill="white"/>
</clipPath>
</defs>
</svg>
