<?xml version="1.0" encoding="UTF-8"?>
<!DOCTYPE svg PUBLIC "-//W3C//DTD SVG 1.1//EN" "http://www.w3.org/Graphics/SVG/1.1/DTD/svg11.dtd">
<svg xmlns="http://www.w3.org/2000/svg" version="1.1" width="144px" height="144px" style="shape-rendering:geometricPrecision; text-rendering:geometricPrecision; image-rendering:optimizeQuality; fill-rule:evenodd; clip-rule:evenodd" xmlns:xlink="http://www.w3.org/1999/xlink">
<g><path style="opacity:0.99" fill="#f7f8fc" d="M 59.5,-0.5 C 67.5,-0.5 75.5,-0.5 83.5,-0.5C 115.833,7.16667 135.833,27.1667 143.5,59.5C 143.5,67.5 143.5,75.5 143.5,83.5C 135.833,115.833 115.833,135.833 83.5,143.5C 75.5,143.5 67.5,143.5 59.5,143.5C 27.1667,135.833 7.16667,115.833 -0.5,83.5C -0.5,75.5 -0.5,67.5 -0.5,59.5C 7.16667,27.1667 27.1667,7.16667 59.5,-0.5 Z"/></g>
<g><path style="opacity:1" fill="#3c3936" d="M 90.5,28.5 C 93.869,28.4739 97.5357,28.6406 101.5,29C 102.738,29.69 102.738,30.19 101.5,30.5C 100.883,30.3893 100.383,30.056 100,29.5C 98.2663,30.2489 96.433,30.7489 94.5,31C 95.1667,31.3333 95.8333,31.6667 96.5,32C 90.8333,32.6667 85.1667,32.6667 79.5,32C 83.1432,30.6742 86.8099,29.5075 90.5,28.5 Z"/></g>
<g><path style="opacity:1" fill="#14100d" d="M 104.5,60.5 C 103.964,63.5547 103.131,66.5547 102,69.5C 101.329,70.2524 100.496,70.5858 99.5,70.5C 99.4673,64.0391 97.134,58.7058 92.5,54.5C 92.6495,53.448 92.4828,52.448 92,51.5C 85.0321,43.0981 76.1987,39.9315 65.5,42C 74.8918,37.0047 83.8918,37.838 92.5,44.5C 93.3957,43.4937 94.0623,43.4937 94.5,44.5C 92.9223,45.2978 91.2556,45.7978 89.5,46C 94.7364,49.2416 98.5698,53.7416 101,59.5C 102.141,55.9942 103.307,56.3275 104.5,60.5 Z"/></g>
<g><path style="opacity:1" fill="#211d1a" d="M 90.5,24.5 C 91.3543,25.6316 91.3543,26.965 90.5,28.5C 86.8099,29.5075 83.1432,30.6742 79.5,32C 85.1667,32.6667 90.8333,32.6667 96.5,32C 95.8333,31.6667 95.1667,31.3333 94.5,31C 96.433,30.7489 98.2663,30.2489 100,29.5C 100.383,30.056 100.883,30.3893 101.5,30.5C 101.047,31.4584 100.381,32.2917 99.5,33C 104.207,32.9832 105.207,34.6498 102.5,38C 104.208,39.5095 105.874,41.0095 107.5,42.5C 105.436,44.4329 105.436,46.5995 107.5,49C 107.302,52.4062 107.136,55.9062 107,59.5C 106.329,60.2524 105.496,60.5858 104.5,60.5C 103.307,56.3275 102.141,55.9942 101,59.5C 98.5698,53.7416 94.7364,49.2416 89.5,46C 91.2556,45.7978 92.9223,45.2978 94.5,44.5C 94.0623,43.4937 93.3957,43.4937 92.5,44.5C 83.8918,37.838 74.8918,37.0047 65.5,42C 76.1987,39.9315 85.0321,43.0981 92,51.5C 92.4828,52.448 92.6495,53.448 92.5,54.5C 91.8333,54.8333 91.1667,55.1667 90.5,55.5C 89.8333,55.5 89.1667,55.5 88.5,55.5C 88.3893,54.8826 88.056,54.3826 87.5,54C 82.8452,53.5008 78.1785,53.3342 73.5,53.5C 70.5,53.5 67.5,53.5 64.5,53.5C 59.8384,54.158 55.8384,56.158 52.5,59.5C 52.0456,48.4844 56.379,39.3177 65.5,32C 66.1667,31.3333 66.8333,31.3333 67.5,32C 63.2174,35.7622 60.3841,40.2622 59,45.5C 65.4627,38.171 73.6293,35.3377 83.5,37C 77.5407,34.3775 71.874,34.5442 66.5,37.5C 65.479,36.9984 65.3123,36.3317 66,35.5C 67.8734,33.2911 70.04,31.4578 72.5,30C 78.7436,28.578 84.7436,26.7446 90.5,24.5 Z"/></g>
<g><path style="opacity:1" fill="#191613" d="M 75.5,24.5 C 75.5299,25.4972 75.0299,26.1639 74,26.5C 64.737,28.4433 57.737,33.4433 53,41.5C 51.6626,45.5524 50.3293,49.5524 49,53.5C 48.1902,48.7426 48.5236,44.0759 50,39.5C 54.1159,33.8804 58.9492,29.2137 64.5,25.5C 67.4815,24.8366 70.4815,24.17 73.5,23.5C 74.4164,23.5427 75.0831,23.8761 75.5,24.5 Z"/></g>
<g><path style="opacity:1" fill="#201c19" d="M 50.5,30.5 C 51.5,30.8333 52.1667,31.5 52.5,32.5C 44.2433,40.2535 42.2433,49.5869 46.5,60.5C 47.451,59.6744 48.451,59.5078 49.5,60C 46.6595,61.5864 43.9928,63.4197 41.5,65.5C 40.8909,69.6347 40.2243,73.6347 39.5,77.5C 39.9088,72.3077 39.2421,67.3077 37.5,62.5C 38.6476,54.841 39.8142,55.1743 41,63.5C 41.3333,57.1667 41.6667,50.8333 42,44.5C 43.4571,39.9055 46.1238,36.2388 50,33.5C 50.4828,32.552 50.6495,31.552 50.5,30.5 Z"/></g>
<g><path style="opacity:1" fill="#3c3631" d="M 90.5,24.5 C 84.7436,26.7446 78.7436,28.578 72.5,30C 70.04,31.4578 67.8734,33.2911 66,35.5C 65.3123,36.3317 65.479,36.9984 66.5,37.5C 71.874,34.5442 77.5407,34.3775 83.5,37C 73.6293,35.3377 65.4627,38.171 59,45.5C 60.3841,40.2622 63.2174,35.7622 67.5,32C 66.8333,31.3333 66.1667,31.3333 65.5,32C 56.379,39.3177 52.0456,48.4844 52.5,59.5C 51.7659,60.7079 51.4326,62.0413 51.5,63.5C 50.8826,63.3893 50.3826,63.056 50,62.5C 47.7202,66.4467 45.0535,70.1134 42,73.5C 41.5026,76.146 41.3359,78.8127 41.5,81.5C 41.5,82.5 41.5,83.5 41.5,84.5C 41.1667,84.5 40.8333,84.5 40.5,84.5C 40.3259,82.139 39.9926,79.8056 39.5,77.5C 40.2243,73.6347 40.8909,69.6347 41.5,65.5C 43.9928,63.4197 46.6595,61.5864 49.5,60C 48.451,59.5078 47.451,59.6744 46.5,60.5C 42.2433,49.5869 44.2433,40.2535 52.5,32.5C 56.0013,29.3365 60.0013,27.0031 64.5,25.5C 58.9492,29.2137 54.1159,33.8804 50,39.5C 48.5236,44.0759 48.1902,48.7426 49,53.5C 50.3293,49.5524 51.6626,45.5524 53,41.5C 57.737,33.4433 64.737,28.4433 74,26.5C 75.0299,26.1639 75.5299,25.4972 75.5,24.5C 76.2216,24.9175 76.7216,25.5842 77,26.5C 81.3584,23.8062 85.8584,23.1395 90.5,24.5 Z"/></g>
<g><path style="opacity:1" fill="#8c5d3a" d="M 73.5,53.5 C 78.1785,53.3342 82.8452,53.5008 87.5,54C 88.056,54.3826 88.3893,54.8826 88.5,55.5C 88.0618,55.4346 87.7284,55.6012 87.5,56C 89.2273,57.3894 90.5606,59.0561 91.5,61C 91.1667,61.5 90.8333,62 90.5,62.5C 88.1667,60.5 85.8333,58.5 83.5,56.5C 82.7348,57.6119 81.7348,58.2786 80.5,58.5C 77.8646,57.1891 75.5313,55.5224 73.5,53.5 Z"/></g>
<g><path style="opacity:1" fill="#34302d" d="M 50.5,30.5 C 50.6495,31.552 50.4828,32.552 50,33.5C 46.1238,36.2388 43.4571,39.9055 42,44.5C 41.6667,50.8333 41.3333,57.1667 41,63.5C 39.8142,55.1743 38.6476,54.841 37.5,62.5C 34.8083,55.834 34.9749,49.1674 38,42.5C 42.0091,38.324 46.1757,34.324 50.5,30.5 Z"/></g>
<g><path style="opacity:1" fill="#f7ccb2" d="M 64.5,53.5 C 67.5,53.5 70.5,53.5 73.5,53.5C 75.5313,55.5224 77.8646,57.1891 80.5,58.5C 80.5,62.1667 80.5,65.8333 80.5,69.5C 78.7839,69.6287 77.1172,69.962 75.5,70.5C 70.1927,70.1196 65.1927,71.1196 60.5,73.5C 59.7656,69.1784 59.599,64.5117 60,59.5C 62.5425,58.1236 62.7092,56.957 60.5,56C 62.0664,55.3918 63.3998,54.5585 64.5,53.5 Z"/></g>
<g><path style="opacity:1" fill="#8e5f3c" d="M 92.5,54.5 C 97.134,58.7058 99.4673,64.0391 99.5,70.5C 98.8333,70.1667 98.1667,69.8333 97.5,69.5C 95.6783,64.5232 93.345,59.8566 90.5,55.5C 91.1667,55.1667 91.8333,54.8333 92.5,54.5 Z"/></g>
<g><path style="opacity:1" fill="#2f2620" d="M 97.5,69.5 C 98.1667,69.8333 98.8333,70.1667 99.5,70.5C 99.5,71.1667 99.5,71.8333 99.5,72.5C 96.2186,71.372 92.8852,71.372 89.5,72.5C 89.4142,71.5041 89.7476,70.6708 90.5,70C 92.8098,69.5034 95.1432,69.3367 97.5,69.5 Z"/></g>
<g><path style="opacity:1" fill="#715846" d="M 51.5,63.5 C 51.7306,67.993 51.064,72.3263 49.5,76.5C 47.8983,79.7517 45.2316,81.4183 41.5,81.5C 41.3359,78.8127 41.5026,76.146 42,73.5C 45.0535,70.1134 47.7202,66.4467 50,62.5C 50.3826,63.056 50.8826,63.3893 51.5,63.5 Z"/></g>
<g><path style="opacity:1" fill="#b78c6d" d="M 49.5,76.5 C 52.5596,81.7978 53.2263,87.4644 51.5,93.5C 50.3994,92.1516 49.3994,90.6516 48.5,89C 47.552,88.5172 46.552,88.3505 45.5,88.5C 45.5,89.5 45.5,90.5 45.5,91.5C 44.8826,91.6107 44.3826,91.944 44,92.5C 42.5,91 41,89.5 39.5,88C 41.3867,87.8374 42.8867,88.6707 44,90.5C 44.1667,89.8333 44.3333,89.1667 44.5,88.5C 43.7142,86.9589 42.7142,85.6256 41.5,84.5C 41.5,83.5 41.5,82.5 41.5,81.5C 45.2316,81.4183 47.8983,79.7517 49.5,76.5 Z"/></g>
<g><path style="opacity:1" fill="#47321f" d="M 97.5,76.5 C 93.0296,76.0301 92.5296,77.0301 96,79.5C 96.49,80.7932 96.6567,82.1266 96.5,83.5C 95.8333,83.1667 95.1667,82.8333 94.5,82.5C 94.8333,79.5 93.5,78.1667 90.5,78.5C 92.265,75.5512 94.5983,74.8846 97.5,76.5 Z"/></g>
<g><path style="opacity:1" fill="#a57a5c" d="M 99.5,72.5 C 100.468,74.6074 100.802,76.9407 100.5,79.5C 100.5,80.1667 100.167,80.5 99.5,80.5C 99.2671,78.9382 98.6005,77.6049 97.5,76.5C 94.5983,74.8846 92.265,75.5512 90.5,78.5C 90.1121,80.3591 90.1121,82.3591 90.5,84.5C 87.9504,84.1156 86.6171,82.6156 86.5,80C 87.093,77.3173 88.093,74.8173 89.5,72.5C 92.8852,71.372 96.2186,71.372 99.5,72.5 Z"/></g>
<g><path style="opacity:1" fill="#030201" d="M 90.5,78.5 C 93.5,78.1667 94.8333,79.5 94.5,82.5C 93.713,84.1042 92.3797,84.7709 90.5,84.5C 90.1121,82.3591 90.1121,80.3591 90.5,78.5 Z"/></g>
<g><path style="opacity:1" fill="#e7e7e6" d="M 97.5,76.5 C 98.6005,77.6049 99.2671,78.9382 99.5,80.5C 99.719,81.675 99.3857,82.675 98.5,83.5C 97.5712,84.5498 96.9046,84.5498 96.5,83.5C 96.6567,82.1266 96.49,80.7932 96,79.5C 92.5296,77.0301 93.0296,76.0301 97.5,76.5 Z"/></g>
<g><path style="opacity:1" fill="#daac8c" d="M 64.5,53.5 C 63.3998,54.5585 62.0664,55.3918 60.5,56C 62.7092,56.957 62.5425,58.1236 60,59.5C 59.599,64.5117 59.7656,69.1784 60.5,73.5C 58.9456,74.8946 59.279,75.5613 61.5,75.5C 65.9043,73.5119 70.4043,73.1786 75,74.5C 78.0516,73.4212 78.2183,72.0878 75.5,70.5C 77.1172,69.962 78.7839,69.6287 80.5,69.5C 80.5,65.8333 80.5,62.1667 80.5,58.5C 81.7348,58.2786 82.7348,57.6119 83.5,56.5C 85.8333,58.5 88.1667,60.5 90.5,62.5C 90.8333,62 91.1667,61.5 91.5,61C 90.5606,59.0561 89.2273,57.3894 87.5,56C 87.7284,55.6012 88.0618,55.4346 88.5,55.5C 89.1667,55.5 89.8333,55.5 90.5,55.5C 93.345,59.8566 95.6783,64.5232 97.5,69.5C 95.1432,69.3367 92.8098,69.5034 90.5,70C 89.7476,70.6708 89.4142,71.5041 89.5,72.5C 88.093,74.8173 87.093,77.3173 86.5,80C 86.6171,82.6156 87.9504,84.1156 90.5,84.5C 92.3797,84.7709 93.713,84.1042 94.5,82.5C 95.1667,82.8333 95.8333,83.1667 96.5,83.5C 96.9046,84.5498 97.5712,84.5498 98.5,83.5C 99.3857,82.675 99.719,81.675 99.5,80.5C 100.167,80.5 100.5,80.1667 100.5,79.5C 102.12,84.6464 103.453,89.9798 104.5,95.5C 102.94,97.6353 101.273,97.802 99.5,96C 97.1902,95.5034 94.8568,95.3367 92.5,95.5C 92.5299,94.5028 92.0299,93.8361 91,93.5C 87.6697,93.7208 84.8364,94.7208 82.5,96.5C 79.7717,92.9692 80.4384,89.9692 84.5,87.5C 85.4742,85.2573 85.8076,82.924 85.5,80.5C 83.8333,80.5 82.1667,80.5 80.5,80.5C 80.9807,84.3491 79.314,86.3491 75.5,86.5C 76.8333,85.1667 76.8333,83.8333 75.5,82.5C 76.3321,80.2752 75.3321,78.9419 72.5,78.5C 70.5,78.5 68.5,78.5 66.5,78.5C 63.796,78.6696 62.1293,80.0029 61.5,82.5C 61.2792,85.0972 60.7792,85.0972 60,82.5C 58.9537,83.772 58.4537,85.272 58.5,87C 58.8814,90.8859 59.5481,94.7192 60.5,98.5C 61.9185,99.0047 62.5852,100.005 62.5,101.5C 60.5,100.833 58.5,100.167 56.5,99.5C 54.8333,97.5 53.1667,95.5 51.5,93.5C 53.2263,87.4644 52.5596,81.7978 49.5,76.5C 51.064,72.3263 51.7306,67.993 51.5,63.5C 51.4326,62.0413 51.7659,60.7079 52.5,59.5C 55.8384,56.158 59.8384,54.158 64.5,53.5 Z"/></g>
<g><path style="opacity:1" fill="#eaebeb" d="M 66.5,78.5 C 68.5,78.5 70.5,78.5 72.5,78.5C 73.5,79.8333 74.5,81.1667 75.5,82.5C 76.8333,83.8333 76.8333,85.1667 75.5,86.5C 74.1667,86.8333 72.8333,87.1667 71.5,87.5C 73.1907,82.5428 71.524,79.5428 66.5,78.5 Z"/></g>
<g><path style="opacity:1" fill="#0a0705" d="M 66.5,81.5 C 70.2838,81.5253 71.2838,83.1919 69.5,86.5C 67.9504,87.7199 66.2837,87.7199 64.5,86.5C 64.5,85.5 64.5,84.5 64.5,83.5C 65.8333,83.5 66.5,82.8333 66.5,81.5 Z"/></g>
<g><path style="opacity:1" fill="#453425" d="M 66.5,78.5 C 71.524,79.5428 73.1907,82.5428 71.5,87.5C 70.8333,87.1667 70.1667,86.8333 69.5,86.5C 71.2838,83.1919 70.2838,81.5253 66.5,81.5C 65.1667,81.5 64.5,82.1667 64.5,83.5C 64.5,84.5 64.5,85.5 64.5,86.5C 63.0221,85.5525 62.0221,84.2191 61.5,82.5C 62.1293,80.0029 63.796,78.6696 66.5,78.5 Z"/></g>
<g><path style="opacity:1" fill="#b9b9b8" d="M 66.5,81.5 C 66.5,82.8333 65.8333,83.5 64.5,83.5C 64.5,82.1667 65.1667,81.5 66.5,81.5 Z"/></g>
<g><path style="opacity:1" fill="#282220" d="M 72.5,78.5 C 75.3321,78.9419 76.3321,80.2752 75.5,82.5C 74.5,81.1667 73.5,79.8333 72.5,78.5 Z"/></g>
<g><path style="opacity:1" fill="#443930" d="M 75.5,70.5 C 78.2183,72.0878 78.0516,73.4212 75,74.5C 70.4043,73.1786 65.9043,73.5119 61.5,75.5C 59.279,75.5613 58.9456,74.8946 60.5,73.5C 65.1927,71.1196 70.1927,70.1196 75.5,70.5 Z"/></g>
<g><path style="opacity:1" fill="#f5caaf" d="M 82.5,96.5 C 83.1667,96.5 83.5,96.8333 83.5,97.5C 77.6494,96.674 72.316,97.8407 67.5,101C 65.8659,101.494 64.1992,101.66 62.5,101.5C 62.5852,100.005 61.9185,99.0047 60.5,98.5C 59.5481,94.7192 58.8814,90.8859 58.5,87C 58.4537,85.272 58.9537,83.772 60,82.5C 60.7792,85.0972 61.2792,85.0972 61.5,82.5C 62.0221,84.2191 63.0221,85.5525 64.5,86.5C 66.2837,87.7199 67.9504,87.7199 69.5,86.5C 70.1667,86.8333 70.8333,87.1667 71.5,87.5C 72.8333,87.1667 74.1667,86.8333 75.5,86.5C 79.314,86.3491 80.9807,84.3491 80.5,80.5C 82.1667,80.5 83.8333,80.5 85.5,80.5C 85.8076,82.924 85.4742,85.2573 84.5,87.5C 80.4384,89.9692 79.7717,92.9692 82.5,96.5 Z"/></g>
<g><path style="opacity:1" fill="#e3b596" d="M 40.5,84.5 C 40.8333,84.5 41.1667,84.5 41.5,84.5C 42.7142,85.6256 43.7142,86.9589 44.5,88.5C 44.3333,89.1667 44.1667,89.8333 44,90.5C 42.8867,88.6707 41.3867,87.8374 39.5,88C 41,89.5 42.5,91 44,92.5C 44.3826,91.944 44.8826,91.6107 45.5,91.5C 45.8023,94.3725 46.469,97.0392 47.5,99.5C 47.5569,100.609 47.8902,101.609 48.5,102.5C 42.8905,102.736 39.3905,100.069 38,94.5C 37.3333,91.8333 37.3333,89.1667 38,86.5C 38.7083,85.6195 39.5416,84.9528 40.5,84.5 Z"/></g>
<g><path style="opacity:1" fill="#9c6e4d" d="M 92.5,95.5 C 89.7814,96.913 86.7814,97.5797 83.5,97.5C 83.5,96.8333 83.1667,96.5 82.5,96.5C 84.8364,94.7208 87.6697,93.7208 91,93.5C 92.0299,93.8361 92.5299,94.5028 92.5,95.5 Z"/></g>
<g><path style="opacity:1" fill="#4a3a2f" d="M 51.5,93.5 C 53.1667,95.5 54.8333,97.5 56.5,99.5C 53.3623,98.3187 50.3623,98.3187 47.5,99.5C 46.469,97.0392 45.8023,94.3725 45.5,91.5C 45.5,90.5 45.5,89.5 45.5,88.5C 46.552,88.3505 47.552,88.5172 48.5,89C 49.3994,90.6516 50.3994,92.1516 51.5,93.5 Z"/></g>
<g><path style="opacity:1" fill="#2d2926" d="M 92.5,95.5 C 94.8568,95.3367 97.1902,95.5034 99.5,96C 101.273,97.802 102.94,97.6353 104.5,95.5C 103.935,99.5368 102.601,103.203 100.5,106.5C 99.7777,105.449 98.7777,104.782 97.5,104.5C 97.7947,102.265 97.4614,100.265 96.5,98.5C 96.2648,97.9033 95.7648,97.5699 95,97.5C 92.9701,97.9537 91.1368,98.6204 89.5,99.5C 84.1563,99.334 78.8229,99.5006 73.5,100C 72.944,100.383 72.6107,100.883 72.5,101.5C 71.5665,105.152 72.8998,107.985 76.5,110C 78.8333,110.667 81.1667,110.667 83.5,110C 86.5186,108.194 89.6852,107.694 93,108.5C 94.6434,107.685 96.1434,106.685 97.5,105.5C 94.9104,112.302 89.9104,115.302 82.5,114.5C 80.5,114.333 78.5,114.167 76.5,114C 69.911,108.871 62.5776,105.038 54.5,102.5C 52.8653,103.046 51.1986,103.38 49.5,103.5C 48.8333,103.5 48.5,103.167 48.5,102.5C 47.8902,101.609 47.5569,100.609 47.5,99.5C 50.3623,98.3187 53.3623,98.3187 56.5,99.5C 58.5,100.167 60.5,100.833 62.5,101.5C 64.1992,101.66 65.8659,101.494 67.5,101C 72.316,97.8407 77.6494,96.674 83.5,97.5C 86.7814,97.5797 89.7814,96.913 92.5,95.5 Z"/></g>
<g><path style="opacity:1" fill="#d5a589" d="M 96.5,98.5 C 97.4614,100.265 97.7947,102.265 97.5,104.5C 97.5,104.833 97.5,105.167 97.5,105.5C 96.1434,106.685 94.6434,107.685 93,108.5C 89.6852,107.694 86.5186,108.194 83.5,110C 81.1667,110.667 78.8333,110.667 76.5,110C 72.8998,107.985 71.5665,105.152 72.5,101.5C 73.1667,101.833 73.8333,102.167 74.5,102.5C 77.1864,103.991 80.1864,104.657 83.5,104.5C 86.8136,104.657 89.8136,103.991 92.5,102.5C 94.1667,101.5 95.5,100.167 96.5,98.5 Z"/></g>
<g><path style="opacity:1" fill="#a1a19d" d="M 89.5,100.5 C 91.1788,100.285 92.1788,100.952 92.5,102.5C 89.8136,103.991 86.8136,104.657 83.5,104.5C 80.1864,104.657 77.1864,103.991 74.5,102.5C 79.5,101.833 84.5,101.167 89.5,100.5 Z"/></g>
<g><path style="opacity:1" fill="#9a6a54" d="M 89.5,99.5 C 89.5,99.8333 89.5,100.167 89.5,100.5C 84.5,101.167 79.5,101.833 74.5,102.5C 73.8333,102.167 73.1667,101.833 72.5,101.5C 72.6107,100.883 72.944,100.383 73.5,100C 78.8229,99.5006 84.1563,99.334 89.5,99.5 Z"/></g>
<g><path style="opacity:1" fill="#78503e" d="M 96.5,98.5 C 95.5,100.167 94.1667,101.5 92.5,102.5C 92.1788,100.952 91.1788,100.285 89.5,100.5C 89.5,100.167 89.5,99.8333 89.5,99.5C 91.1368,98.6204 92.9701,97.9537 95,97.5C 95.7648,97.5699 96.2648,97.9033 96.5,98.5 Z"/></g>
<g><path style="opacity:1" fill="#201c19" d="M 97.5,105.5 C 97.5,105.167 97.5,104.833 97.5,104.5C 98.7777,104.782 99.7777,105.449 100.5,106.5C 97.482,115.52 91.1486,119.853 81.5,119.5C 68.3444,118.922 57.6777,113.589 49.5,103.5C 51.1986,103.38 52.8653,103.046 54.5,102.5C 62.5776,105.038 69.911,108.871 76.5,114C 78.5,114.167 80.5,114.333 82.5,114.5C 89.9104,115.302 94.9104,112.302 97.5,105.5 Z"/></g>
</svg>
