<svg width="35" height="35" viewBox="0 0 35 35" fill="none" xmlns="http://www.w3.org/2000/svg">
<g clip-path="url(#clip0_1219_6905)">
<path d="M10.2083 0H5.83333C2.61625 0 0 2.61625 0 5.83333V10.2083C0 13.4254 2.61625 16.0417 5.83333 16.0417H10.2083C13.4254 16.0417 16.0417 13.4254 16.0417 10.2083V5.83333C16.0417 2.61625 13.4254 0 10.2083 0ZM13.125 10.2083C13.125 11.8169 11.8169 13.125 10.2083 13.125H5.83333C4.22479 13.125 2.91667 11.8169 2.91667 10.2083V5.83333C2.91667 4.22479 4.22479 2.91667 5.83333 2.91667H10.2083C11.8169 2.91667 13.125 4.22479 13.125 5.83333V10.2083ZM10.2083 7.29167V8.75C10.2083 9.555 9.555 10.2083 8.75 10.2083H7.29167C6.48667 10.2083 5.83333 9.555 5.83333 8.75V7.29167C5.83333 6.48667 6.48667 5.83333 7.29167 5.83333H8.75C9.555 5.83333 10.2083 6.48667 10.2083 7.29167ZM24.7917 16.0417H29.1667C32.3838 16.0417 35 13.4254 35 10.2083V5.83333C35 2.61625 32.3838 0 29.1667 0H24.7917C21.5746 0 18.9583 2.61625 18.9583 5.83333V10.2083C18.9583 13.4254 21.5746 16.0417 24.7917 16.0417ZM21.875 5.83333C21.875 4.22479 23.1831 2.91667 24.7917 2.91667H29.1667C30.7752 2.91667 32.0833 4.22479 32.0833 5.83333V10.2083C32.0833 11.8169 30.7752 13.125 29.1667 13.125H24.7917C23.1831 13.125 21.875 11.8169 21.875 10.2083V5.83333ZM24.7917 8.75V7.29167C24.7917 6.48667 25.445 5.83333 26.25 5.83333H27.7083C28.5133 5.83333 29.1667 6.48667 29.1667 7.29167V8.75C29.1667 9.555 28.5133 10.2083 27.7083 10.2083H26.25C25.445 10.2083 24.7917 9.555 24.7917 8.75ZM10.2083 18.9583H5.83333C2.61625 18.9583 0 21.5746 0 24.7917V29.1667C0 32.3838 2.61625 35 5.83333 35H10.2083C13.4254 35 16.0417 32.3838 16.0417 29.1667V24.7917C16.0417 21.5746 13.4254 18.9583 10.2083 18.9583ZM13.125 29.1667C13.125 30.7752 11.8169 32.0833 10.2083 32.0833H5.83333C4.22479 32.0833 2.91667 30.7752 2.91667 29.1667V24.7917C2.91667 23.1831 4.22479 21.875 5.83333 21.875H10.2083C11.8169 21.875 13.125 23.1831 13.125 24.7917V29.1667ZM10.2083 26.25V27.7083C10.2083 28.5133 9.555 29.1667 8.75 29.1667H7.29167C6.48667 29.1667 5.83333 28.5133 5.83333 27.7083V26.25C5.83333 25.445 6.48667 24.7917 7.29167 24.7917H8.75C9.555 24.7917 10.2083 25.445 10.2083 26.25ZM24.7917 21.1458V22.6042C24.7917 23.8117 23.8117 24.7917 22.6042 24.7917H21.1458C19.9383 24.7917 18.9583 23.8117 18.9583 22.6042V21.1458C18.9583 19.9383 19.9383 18.9583 21.1458 18.9583H22.6042C23.8117 18.9583 24.7917 19.9383 24.7917 21.1458ZM29.1667 26.9792C29.1667 28.1867 28.1867 29.1667 26.9792 29.1667C25.7717 29.1667 24.7917 28.1867 24.7917 26.9792C24.7917 25.7717 25.7717 24.7917 26.9792 24.7917C28.1867 24.7917 29.1667 25.7717 29.1667 26.9792ZM24.7917 31.3542V32.8125C24.7917 34.02 23.8117 35 22.6042 35H21.1458C19.9383 35 18.9583 34.02 18.9583 32.8125V31.3542C18.9583 30.1467 19.9383 29.1667 21.1458 29.1667H22.6042C23.8117 29.1667 24.7917 30.1467 24.7917 31.3542ZM35 21.1458V22.6042C35 23.8117 34.02 24.7917 32.8125 24.7917H31.3542C30.1467 24.7917 29.1667 23.8117 29.1667 22.6042V21.1458C29.1667 19.9383 30.1467 18.9583 31.3542 18.9583H32.8125C34.02 18.9583 35 19.9383 35 21.1458Z" fill="#464646"/>
</g>
<defs>
<clipPath id="clip0_1219_6905">
<rect width="35" height="35" fill="white"/>
</clipPath>
</defs>
</svg>
