<svg width="38" height="39" viewBox="0 0 38 39" fill="none" xmlns="http://www.w3.org/2000/svg">
<g clip-path="url(#clip0_1211_9384)">
<path d="M25.6097 1.68171C23.5514 0.918074 21.3252 0.5 19.0011 0.5C16.677 0.499926 14.4507 0.918074 12.3924 1.68171L10.7402 19.4999L12.3924 37.3181C14.4507 38.082 16.6769 38.5 19.0011 38.5C21.3251 38.5 23.5514 38.082 25.6097 37.3181L27.2618 19.5L25.6097 1.68171Z" fill="#FFDA44"/>
<path d="M38.0007 19.4999C38.0007 11.3306 32.8446 4.36613 25.6094 1.68164V37.3182C32.8446 34.6334 38.0006 27.6693 38.0007 19.4999Z" fill="#D80027"/>
<path d="M0 19.4997C0 27.6692 5.15613 34.6334 12.3912 37.3181L12.3913 1.68164C5.15613 4.36613 0 11.3304 0 19.4997H0Z" fill="#0052B4"/>
</g>
<defs>
<clipPath id="clip0_1211_9384">
<rect width="38" height="38" fill="white" transform="translate(0 0.5)"/>
</clipPath>
</defs>
</svg>
