<svg width="38" height="38" viewBox="0 0 38 38" fill="none" xmlns="http://www.w3.org/2000/svg">
<g clip-path="url(#clip0_1211_9419)">
<path d="M1.8853 10.7401C0.677469 13.238 0 16.0403 0 19.0009C0 21.9616 0.677469 24.7639 1.8853 27.2618L19 28.9139L36.1147 27.2618C37.3225 24.7639 38 21.9616 38 19.0009C38 16.0403 37.3225 13.238 36.1147 10.7401L19 9.08789L1.8853 10.7401Z" fill="#F0F0F0"/>
<path d="M1.88672 27.2617C4.95982 33.6171 11.4681 38.0009 19.0007 38.0009C26.5334 38.0009 33.0417 33.6171 36.1148 27.2617H1.88672Z" fill="#496E2D"/>
<path d="M1.88672 10.7392H36.1148C33.0417 4.38373 26.5335 0 19.0007 0C11.468 0 4.95982 4.38373 1.88672 10.7392Z" fill="black"/>
<path d="M5.56496 5.56445C-1.85499 12.9844 -1.85499 25.0146 5.56496 32.4346C8.63116 29.3684 11.5801 26.4195 19 18.9995L5.56496 5.56445Z" fill="#D80027"/>
<path d="M23.9568 18.9994C23.9568 16.2312 25.9023 13.9186 28.5003 13.3513C28.101 13.2641 27.6867 13.2168 27.2611 13.2168C24.0674 13.2168 21.4785 15.8057 21.4785 18.9994C21.4785 22.1931 24.0674 24.782 27.2611 24.782C27.6866 24.782 28.1009 24.7347 28.5003 24.6475C25.9023 24.0802 23.9568 21.7676 23.9568 18.9994Z" fill="#D80027"/>
<path d="M28.7439 15.2812L29.5642 17.8057H32.2183L30.071 19.3657L30.8913 21.89L28.7439 20.3299L26.5966 21.89L27.417 19.3657L25.2695 17.8057H27.9237L28.7439 15.2812Z" fill="#D80027"/>
</g>
<defs>
<clipPath id="clip0_1211_9419">
<rect width="38" height="38" fill="white"/>
</clipPath>
</defs>
</svg>
