<svg width="20" height="20" viewBox="0 0 20 20" fill="none" xmlns="http://www.w3.org/2000/svg">
<path fill-rule="evenodd" clip-rule="evenodd" d="M9.48718 1.53846C5.09639 1.53846 1.53846 5.09356 1.53846 9.47712C1.53846 13.8607 5.09639 17.4158 9.48718 17.4158C11.6777 17.4158 13.6599 16.5318 15.0983 15.1C16.5433 13.6617 17.4359 11.6742 17.4359 9.47712C17.4359 5.09356 13.878 1.53846 9.48718 1.53846ZM0 9.47712C0 4.24221 4.24839 0 9.48718 0C14.726 0 18.9744 4.24221 18.9744 9.47712C18.9744 11.8225 18.1207 13.9697 16.7083 15.624C16.4463 15.9309 16 16.5 16 16.5C16 16.5 15.9165 16.4571 15.6182 16.7096C13.965 18.1093 11.8242 18.9542 9.48718 18.9542C4.24839 18.9542 0 14.712 0 9.47712Z" fill="#7A869A"/>
<circle cx="17.5" cy="18.5" r="1" fill="#7A869A" stroke="#7A869A"/>
</svg>
