<svg width="24" height="25" viewBox="0 0 24 25" fill="none" xmlns="http://www.w3.org/2000/svg">
<path fill-rule="evenodd" clip-rule="evenodd" d="M12 4.0326C10.1472 4.0326 8.64516 5.52499 8.64516 7.36594C8.64516 9.20688 10.1472 10.6993 12 10.6993C13.8528 10.6993 15.3548 9.20688 15.3548 7.36594C15.3548 5.52499 13.8528 4.0326 12 4.0326ZM7.09677 7.36594C7.09677 4.67532 9.29202 2.49414 12 2.49414C14.708 2.49414 16.9032 4.67532 16.9032 7.36594C16.9032 10.0566 14.708 12.2377 12 12.2377C9.29202 12.2377 7.09677 10.0566 7.09677 7.36594Z" fill="#7A869A"/>
<path fill-rule="evenodd" clip-rule="evenodd" d="M9.46618 15.8275C7.30244 15.8275 5.54839 17.5703 5.54839 19.7201C5.54839 19.833 5.56915 19.9127 5.59092 19.9591C5.60929 19.9983 5.62506 20.0094 5.63821 20.0165C6.23988 20.3418 7.92682 20.9557 12 20.9557C16.0732 20.9557 17.7601 20.3418 18.3618 20.0165C18.3749 20.0094 18.3907 19.9983 18.4091 19.9591C18.4309 19.9127 18.4516 19.833 18.4516 19.7201C18.4516 17.5703 16.6976 15.8275 14.5338 15.8275H9.46618ZM4 19.7201C4 16.7206 6.44729 14.289 9.46618 14.289H14.5338C17.5527 14.289 20 16.7206 20 19.7201C20 20.2708 19.7994 20.9908 19.1019 21.3679C18.1779 21.8674 16.1959 22.4941 12 22.4941C7.80414 22.4941 5.82206 21.8674 4.89812 21.3679C4.20063 20.9908 4 20.2708 4 19.7201Z" fill="#7A869A"/>
</svg>
