<svg width="20" height="20" viewBox="0 0 20 20" fill="none" xmlns="http://www.w3.org/2000/svg">
<path fill-rule="evenodd" clip-rule="evenodd" d="M17.0869 2.90667C15.2062 1.03333 12.7059 0.000833333 10.0423 0C4.55348 0 0.0862466 4.445 0.0837346 9.91C0.0828972 11.6567 0.541763 13.3617 1.41344 14.865L0.459884 18.3292C0.255541 19.0716 0.931664 19.7567 1.67667 19.5622L5.27863 18.6217C6.7331 19.4117 8.37094 19.8275 10.0373 19.8283H10.0414C15.5294 19.8283 19.9975 15.3825 20 9.9175C20.0017 7.27 18.9667 4.77917 17.0869 2.90667ZM10.0423 18.1542H10.0389C8.55348 18.1542 7.09734 17.7567 5.82625 17.0058L5.52397 16.8275L4.06777 17.2075C3.32283 17.4019 2.64683 16.7169 2.85109 15.9746L3.22797 14.605L3.03119 14.2933C2.20222 12.9817 1.76512 11.4658 1.76596 9.91C1.76764 5.36833 5.48126 1.67333 10.0465 1.67333C12.2571 1.67333 14.3354 2.53167 15.8978 4.08833C17.4603 5.64583 18.3203 7.715 18.3194 9.91583C18.3169 14.4592 14.6041 18.1542 10.0423 18.1542ZM14.5824 11.985C14.3337 11.8608 13.1103 11.2617 12.8817 11.1792C12.654 11.0967 12.4882 11.055 12.3215 11.3025C12.1549 11.55 11.6793 12.1083 11.5336 12.2742C11.3887 12.4392 11.243 12.46 10.9943 12.3358C10.7457 12.2117 9.94348 11.9508 8.99309 11.1067C8.25371 10.45 7.75382 9.63917 7.60896 9.39083C7.4641 9.1425 7.59389 9.00917 7.71781 8.88583C7.83002 8.775 7.96651 8.59667 8.09127 8.45167C8.21687 8.30833 8.2579 8.205 8.34164 8.03917C8.42453 7.87417 8.3835 7.72917 8.3207 7.605C8.2579 7.48167 7.76052 6.2625 7.55369 5.76667C7.35189 5.28333 7.14674 5.34917 6.99351 5.34167C6.84865 5.33417 6.68285 5.33333 6.51622 5.33333C6.35043 5.33333 6.0808 5.395 5.85304 5.64333C5.62529 5.89167 4.98221 6.49083 4.98221 7.70917C4.98221 8.92833 5.87398 10.1058 5.99791 10.2708C6.12183 10.4358 7.75214 12.9375 10.2483 14.01C10.8419 14.265 11.3058 14.4175 11.6667 14.5317C12.2629 14.72 12.8055 14.6933 13.2342 14.63C13.7124 14.5592 14.7063 14.0308 14.914 13.4525C15.1216 12.8742 15.1216 12.3775 15.0588 12.275C14.9969 12.1708 14.8311 12.1092 14.5824 11.985Z" fill="#7A869A"/>
</svg>
