<svg width="25" height="24" viewBox="0 0 25 24" fill="none" xmlns="http://www.w3.org/2000/svg">
<path d="M13.0941 3.46632L13.0671 3.52932L10.457 9.58628H7.89205C7.28006 9.58628 6.69506 9.71228 6.16406 9.93728L7.73905 6.1753L7.77505 6.0853L7.83805 5.9413C7.85605 5.8873 7.87405 5.8333 7.90105 5.7883C9.08004 3.06132 10.412 2.44033 13.0941 3.46632Z" stroke="#C2C2C2" stroke-width="1.55742" stroke-linecap="round" stroke-linejoin="round"/>
<path d="M17.945 9.76676C17.54 9.64076 17.108 9.58676 16.676 9.58676H10.457L13.067 3.5298L13.094 3.4668C13.229 3.5118 13.355 3.5748 13.49 3.6288L15.479 4.46579C16.586 4.92479 17.36 5.40178 17.828 5.97778C17.918 6.08578 17.99 6.18478 18.053 6.30178C18.134 6.42778 18.197 6.55378 18.233 6.68878C18.269 6.76978 18.296 6.85078 18.314 6.92278C18.557 7.67877 18.413 8.60576 17.945 9.76676Z" stroke="#C2C2C2" stroke-width="1.55742" stroke-linecap="round" stroke-linejoin="round"/>
<path d="M21.5 13.7335V15.4251C21.5 15.5986 21.4908 15.7721 21.4815 15.9456C21.3063 18.9732 19.5072 20.5 16.0935 20.5H8.89724C8.67581 20.5 8.45439 20.4827 8.24219 20.4566C5.30831 20.2744 3.73988 18.7997 3.54613 16.041C3.51845 15.8415 3.5 15.6333 3.5 15.4251V13.7335C3.5 11.9898 4.62558 10.489 6.23091 9.83833C6.78447 9.62145 7.37494 9.5 8.00231 9.5H17.0069C17.459 9.5 17.9018 9.56073 18.3078 9.6735C20.1438 10.2027 21.5 11.8163 21.5 13.7335Z" stroke="#C2C2C2" stroke-width="1.55742" stroke-linecap="round" stroke-linejoin="round"/>
<path d="M7.73897 6.17578L6.16398 9.93776C4.59799 10.6128 3.5 12.1698 3.5 13.9788V11.3418C3.5 8.78576 5.31799 6.65278 7.73897 6.17578Z" stroke="#C2C2C2" stroke-width="1.55742" stroke-linecap="round" stroke-linejoin="round"/>
<path d="M21.5 10.9679V13.5C21.5 11.5988 19.8121 9.98273 17.5 9.46418C18.1012 8.34073 18.2746 7.45925 17.9855 6.72469C17.9624 6.64691 17.9277 6.56914 17.8815 6.5C20.0318 7.32963 21.5 9.03209 21.5 10.9679Z" stroke="#C2C2C2" stroke-width="1.55742" stroke-linecap="round" stroke-linejoin="round"/>
</svg>
