<svg width="20" height="19" viewBox="0 0 20 19" fill="none" xmlns="http://www.w3.org/2000/svg">
<path fill-rule="evenodd" clip-rule="evenodd" d="M10 7.2734C10.3841 7.2734 10.6955 7.57498 10.6955 7.94699V11.5395C10.6955 11.9115 10.3841 12.2131 10 12.2131C9.61591 12.2131 9.30455 11.9115 9.30455 11.5395V7.94699C9.30455 7.57498 9.61591 7.2734 10 7.2734Z" fill="#262626"/>
<path d="M10.9273 14.2339C10.9273 14.7299 10.5121 15.132 10 15.132C9.48788 15.132 9.07273 14.7299 9.07273 14.2339C9.07273 13.7379 9.48788 13.3358 10 13.3358C10.5121 13.3358 10.9273 13.7379 10.9273 14.2339Z" fill="#262626"/>
<path fill-rule="evenodd" clip-rule="evenodd" d="M7.93806 1.55924C8.93411 0.146919 11.0659 0.146918 12.0619 1.55924C13.2971 3.31057 15.0453 5.85811 16.2149 7.85566C17.4427 9.95257 18.8406 12.8228 19.7707 14.8011C20.5029 16.3582 19.3983 18.1231 17.6389 18.2242C15.4713 18.3488 12.3569 18.5 10 18.5C7.64305 18.5 4.52872 18.3488 2.36111 18.2242C0.601711 18.1231 -0.502851 16.3582 0.229262 14.8011C1.1594 12.8228 2.55728 9.95257 3.78508 7.85566C4.9547 5.85811 6.70292 3.31057 7.93806 1.55924ZM10.9134 2.31913C10.4696 1.68988 9.53037 1.68988 9.08658 2.31913C7.85303 4.06821 6.13356 6.57567 4.99496 8.52025C3.79998 10.5611 2.42375 13.3842 1.49509 15.3594C1.1694 16.0521 1.655 16.8341 2.44348 16.8794C4.60873 17.0038 7.68756 17.1528 10 17.1528C12.3124 17.1528 15.3913 17.0038 17.5565 16.8794C18.345 16.8341 18.8306 16.0521 18.5049 15.3594C17.5762 13.3842 16.2 10.5611 15.005 8.52025C13.8664 6.57567 12.147 4.06821 10.9134 2.31913Z" fill="#262626"/>
</svg>
