<svg width="30" height="30" viewBox="0 0 30 30" fill="none" xmlns="http://www.w3.org/2000/svg">
<g clip-path="url(#clip0_536_10750)">
<path fill-rule="evenodd" clip-rule="evenodd" d="M25.5778 4.36C22.7703 1.55 19.0378 0.00125 15.0616 0C6.86781 0 0.199063 6.6675 0.195313 14.865C0.194063 17.485 0.879062 20.0425 2.18031 22.2975L0.0703125 30L7.95031 27.9325C10.1216 29.1175 12.5666 29.7413 15.0541 29.7425H15.0603C23.2528 29.7425 29.9228 23.0737 29.9266 14.8763C29.9291 10.905 28.3841 7.16875 25.5778 4.36ZM15.0616 27.2313H15.0566C12.8391 27.2313 10.6653 26.635 8.76781 25.5087L8.31656 25.2413L3.64031 26.4675L4.88906 21.9075L4.59531 21.44C3.35781 19.4725 2.70531 17.1987 2.70656 14.865C2.70906 8.0525 8.25281 2.51 15.0678 2.51C18.3678 2.51 21.4703 3.7975 23.8028 6.1325C26.1353 8.46875 27.4191 11.5725 27.4178 14.8738C27.4141 21.6888 21.8716 27.2313 15.0616 27.2313ZM21.8391 17.9775C21.4678 17.7913 19.6416 16.8925 19.3003 16.7687C18.9603 16.645 18.7128 16.5825 18.4641 16.9538C18.2153 17.325 17.5053 18.1625 17.2878 18.4113C17.0716 18.6588 16.8541 18.69 16.4828 18.5037C16.1116 18.3175 14.9141 17.9263 13.4953 16.66C12.3916 15.675 11.6453 14.4587 11.4291 14.0863C11.2128 13.7137 11.4066 13.5138 11.5916 13.3288C11.7591 13.1625 11.9628 12.895 12.1491 12.6775C12.3366 12.4625 12.3978 12.3075 12.5228 12.0588C12.6466 11.8113 12.5853 11.5938 12.4916 11.4075C12.3978 11.2225 11.6553 9.39375 11.3466 8.65C11.0453 7.925 10.7391 8.02375 10.5103 8.0125C10.2941 8.00125 10.0466 8 9.79781 8C9.55031 8 9.14781 8.0925 8.80781 8.465C8.46781 8.8375 7.50781 9.73625 7.50781 11.5638C7.50781 13.3925 8.83906 15.1587 9.02406 15.4062C9.20906 15.6537 11.6428 19.4062 15.3691 21.015C16.2553 21.3975 16.9478 21.6262 17.4866 21.7975C18.3766 22.08 19.1866 22.04 19.8266 21.945C20.5403 21.8387 22.0241 21.0462 22.3341 20.1787C22.6441 19.3112 22.6441 18.5662 22.5503 18.4125C22.4578 18.2562 22.2103 18.1637 21.8391 17.9775Z" fill="#7A869A"/>
</g>
<defs>
<clipPath id="clip0_536_10750">
<rect width="30" height="30" fill="white"/>
</clipPath>
</defs>
</svg>
