<svg width="38" height="38" viewBox="0 0 38 38" fill="none" xmlns="http://www.w3.org/2000/svg">
<g clip-path="url(#clip0_1211_9394)">
<path d="M19 38C29.4934 38 38 29.4934 38 19C38 8.50659 29.4934 0 19 0C8.50659 0 0 8.50659 0 19C0 29.4934 8.50659 38 19 38Z" fill="#F0F0F0"/>
<path d="M18.9999 38.0007C27.1692 38.0007 34.1335 32.8446 36.8181 25.6094H1.18164C3.86621 32.8446 10.8305 38.0007 18.9999 38.0007Z" fill="black"/>
<path d="M18.9999 0C10.8305 0 3.86621 5.15613 1.18164 12.3913H36.8181C34.1335 5.15613 27.1692 0 18.9999 0Z" fill="#D80027"/>
</g>
<defs>
<clipPath id="clip0_1211_9394">
<rect width="38" height="38" fill="white"/>
</clipPath>
</defs>
</svg>
